<svg width="100" height="41" viewBox="0 0 100 41" fill="none" xmlns="http://www.w3.org/2000/svg">
<g clip-path="url(#clip0_1_3)">
<path fill-rule="evenodd" clip-rule="evenodd" d="M17.8906 9.13526C19.0017 10.1394 20.725 10.0574 21.7333 8.95083C22.9473 7.61885 25.2107 6.00502 27.8857 5.549C30.3754 5.11866 33.5288 5.63097 36.9547 9.04303C38.0144 10.1035 39.7377 10.1035 40.7974 9.04303C41.8622 7.98766 41.8622 6.27139 40.7974 5.21601C36.1883 0.620556 31.2807 -0.532144 26.9595 0.205589C22.8237 0.917707 19.5315 3.30511 17.7053 5.3082C16.6971 6.41993 16.7795 8.13103 17.8906 9.13526Z" fill="#F5F6F8"/>
<path fill-rule="evenodd" clip-rule="evenodd" d="M59.7038 9.13526C60.8149 10.1394 62.5381 10.0574 63.5465 8.95083C64.7605 7.61885 67.0239 6.00502 69.6989 5.549C72.1886 5.11866 75.342 5.63097 78.7679 9.04303C79.8276 10.1035 81.5509 10.1035 82.6106 9.04303C83.6754 7.98766 83.6754 6.27139 82.6106 5.21601C78.0015 0.620556 73.0939 -0.532144 68.7727 0.205589C64.6369 0.917707 61.3447 3.30511 59.5185 5.3082C58.5103 6.41993 58.5927 8.13103 59.7038 9.13526Z" fill="#F5F6F8"/>
<path d="M87.4762 19.6768V40.6603H82.4177V19.6768H87.4762ZM100 19.6768L91.8718 30.3126L87.1159 35.5153L86.1936 30.8747L89.2345 26.263L93.7597 19.6768H100ZM94.0191 40.6603L88.6003 31.2062L92.5347 28.3094L100 40.6603H94.0191Z" fill="#F54936"/>
<path d="M74.791 19.6768V40.6603H69.7469L62.3249 27.6032V40.6603H57.2664V19.6768H62.3249L69.7469 32.7338V19.6768H74.791Z" fill="#1AA7FF"/>
<path d="M49.2794 19.6768V40.6603H44.2353V19.6768H49.2794Z" fill="#8BE600"/>
<path d="M37.3436 36.7691V40.6603H26.7366V36.7691H37.3436ZM28.5381 19.6768V40.6603H23.4796V19.6768H28.5381Z" fill="#FF27B6"/>
<path d="M8.56056 31.7394H3.15617L3.12734 28.4247H7.5085C8.29634 28.4247 8.92566 28.3382 9.39644 28.1653C9.86722 27.9827 10.2083 27.7185 10.4197 27.3727C10.6406 27.0268 10.7511 26.5944 10.7511 26.0756C10.7511 25.4799 10.6406 24.9995 10.4197 24.6344C10.1987 24.2693 9.848 24.0051 9.36761 23.8418C8.89683 23.6688 8.28674 23.5824 7.53733 23.5824H5.05851V40.6603H0V19.6768H7.53733C8.83438 19.6768 9.99212 19.7969 11.0105 20.0371C12.029 20.2677 12.8937 20.6232 13.6047 21.1036C14.3252 21.5839 14.8729 22.1892 15.2476 22.9194C15.6223 23.64 15.8097 24.4903 15.8097 25.4703C15.8097 26.3254 15.6271 27.1277 15.262 27.8771C14.8969 28.6265 14.2868 29.2366 13.4317 29.7073C12.5862 30.1685 11.4285 30.4087 9.95849 30.4279L8.56056 31.7394ZM8.35879 40.6603H1.93117L3.66058 36.7691H8.35879C9.05056 36.7691 9.60301 36.6634 10.0161 36.452C10.4389 36.2311 10.7415 35.9428 10.9241 35.5873C11.1162 35.2222 11.2123 34.8187 11.2123 34.3767C11.2123 33.8387 11.121 33.3727 10.9385 32.9788C10.7656 32.5849 10.4869 32.2822 10.1026 32.0709C9.7183 31.8499 9.20428 31.7394 8.56056 31.7394H4.3091L4.33793 28.4247H9.42526L10.607 29.7506C12.0098 29.6929 13.1195 29.8899 13.9361 30.3415C14.7624 30.793 15.3533 31.3887 15.7088 32.1285C16.0643 32.8683 16.242 33.6417 16.242 34.4488C16.242 35.8227 15.9442 36.9709 15.3485 37.8932C14.7624 38.8156 13.8833 39.5073 12.7111 39.9685C11.539 40.4297 10.0882 40.6603 8.35879 40.6603Z" fill="#622FFF"/>
</g>
<defs>
<clipPath id="clip0_1_3">
<rect width="100" height="41" fill="white"/>
</clipPath>
</defs>
</svg>
