<svg width="64" height="64" viewBox="0 0 64 64" fill="none" xmlns="http://www.w3.org/2000/svg">
  <style>
    .favicon-path {
      fill: #622fff; /* Light mode - purple */
    }
    @media (prefers-color-scheme: dark) {
      .favicon-path {
        fill: #f5f6f8; /* Dark mode - light gray */
      }
    }
  </style>
  <rect width="64" height="64" fill="#080214" />
  <path
    class="favicon-path"
    d="M19.0139 17.2138C20.2788 18.3365 22.2405 18.2449 23.3884 17.0076C24.7704 15.5184 27.347 13.714 30.3922 13.2042C33.2265 12.723 36.8163 13.2958 40.7164 17.1107C41.9227 18.2964 43.8845 18.2964 45.0909 17.1107C46.303 15.9308 46.303 14.0118 45.0909 12.8319C39.8439 7.69382 34.2572 6.40503 29.3379 7.22986C24.6297 8.02606 20.8818 10.6953 18.8029 12.9349C17.6552 14.1779 17.749 16.091 19.0139 17.2138Z"
  />
  <path
    class="favicon-path"
    d="M32.6495 42.8207H24.6637L24.6211 37.9238H31.0949C32.2591 37.9238 33.189 37.796 33.8846 37.5405C34.5803 37.2708 35.0843 36.8805 35.3966 36.3695C35.7232 35.8585 35.8864 35.2198 35.8864 34.4533C35.8864 33.5733 35.7232 32.8636 35.3966 32.3242C35.0701 31.7848 34.5519 31.3945 33.8421 31.1532C33.1464 30.8977 32.2449 30.7699 31.1375 30.7699H27.4747V56H20V25H31.1375C33.0541 25 34.7649 25.1774 36.2697 25.5323C37.7746 25.8729 39.0524 26.3981 40.1029 27.1078C41.1677 27.8175 41.9769 28.7118 42.5306 29.7905C43.0843 30.8551 43.3611 32.1113 43.3611 33.5591C43.3611 34.8223 43.0914 36.0076 42.5519 37.1147C42.0124 38.2218 41.1109 39.1232 39.8474 39.8187C38.598 40.5 36.8873 40.8549 34.7152 40.8832L32.6495 42.8207ZM32.3514 56H22.8536L25.4091 50.2514H32.3514C33.3736 50.2514 34.1899 50.0952 34.8004 49.783C35.425 49.4565 35.8722 49.0307 36.142 48.5055C36.4259 47.9661 36.5679 47.37 36.5679 46.717C36.5679 45.9222 36.433 45.2337 36.1633 44.6518C35.9077 44.0698 35.496 43.6227 34.9281 43.3104C34.3602 42.984 33.6007 42.8207 32.6495 42.8207H26.3673L26.4099 37.9238H33.9272L35.6735 39.8826C37.7462 39.7974 39.386 40.0884 40.5927 40.7555C41.8137 41.4226 42.6868 42.3027 43.2121 43.3956C43.7374 44.4886 44 45.6312 44 46.8235C44 48.8533 43.5599 50.5495 42.6797 51.9121C41.8137 53.2747 40.5146 54.2967 38.7826 54.978C37.0506 55.6593 34.9068 56 32.3514 56Z"
  />
</svg>
