<svg
  width="2560"
  height="1440"
  viewBox="0 0 2560 1440"
  fill="none"
  xmlns="http://www.w3.org/2000/svg"
>
  <g clip-path="url(#clip0_313_299)">
    <rect width="2560" height="1440" fill="#EAECED" />
    <rect
      opacity="0.745489"
      width="2560"
      height="1440"
      fill="url(#paint0_linear_313_299)"
    />
    <path
      fill-rule="evenodd"
      clip-rule="evenodd"
      d="M0 0H2560V1083L0 390.002V0Z"
      fill="url(#paint1_linear_313_299)"
    />
    <g opacity="0.5">
      <circle cx="50.5" cy="499.5" r="13.5" fill="#9CE736" />
      <circle cx="347.5" cy="386.5" r="13.5" fill="#FFD445" />
      <circle cx="332" cy="515" r="10" fill="#FF6C00" />
      <circle cx="1020" cy="1081" r="10" fill="#FF6C00" />
      <circle cx="1339.5" cy="958.5" r="13.5" fill="#1D5FC1" />
      <path
        fill-rule="evenodd"
        clip-rule="evenodd"
        d="M538.231 691.169L553.422 707.424L533.199 712.845L538.231 691.169Z"
        fill="#EEA2BF"
      />
      <path
        fill-rule="evenodd"
        clip-rule="evenodd"
        d="M791.674 733.973L806.866 750.229L786.643 755.649L791.674 733.973Z"
        fill="#01A791"
      />
      <path
        fill-rule="evenodd"
        clip-rule="evenodd"
        d="M471.98 906.967L460.333 932.788C458.452 936.96 452.97 937.931 449.711 934.672L443.848 928.807C436.738 921.694 436.844 910.116 444.205 903.262C451.217 896.734 462.301 897.285 469.132 904.118L471.98 906.967Z"
        fill="#FFD445"
      />
      <path
        fill-rule="evenodd"
        clip-rule="evenodd"
        d="M516.735 150.666L510.258 171.954L495.454 157.145L516.735 150.666Z"
        fill="#FF6C00"
      />
      <path
        fill-rule="evenodd"
        clip-rule="evenodd"
        d="M341.014 757.815L334.537 779.103L319.733 764.294L341.014 757.815Z"
        fill="#01A791"
      />
      <path
        fill-rule="evenodd"
        clip-rule="evenodd"
        d="M575.301 392.008L577.167 392.959L575.573 407.566C575.316 409.925 572.764 411.281 570.629 410.193L566.787 408.235C562.128 405.86 560.315 400.128 562.848 395.569C565.26 391.226 570.825 389.726 575.301 392.008Z"
        fill="#1D5FC1"
      />
      <path
        fill-rule="evenodd"
        clip-rule="evenodd"
        d="M986.771 820.306L988.637 821.257L987.043 835.865C986.785 838.224 984.233 839.58 982.098 838.492L978.256 836.534C973.598 834.159 971.784 828.427 974.317 823.867C976.73 819.524 982.295 818.025 986.771 820.306Z"
        fill="#1D5FC1"
      />
      <path
        fill-rule="evenodd"
        clip-rule="evenodd"
        d="M1218.37 174.861L1235.3 197.569C1238.03 201.237 1236.22 206.505 1231.8 207.776L1223.82 210.062C1214.16 212.835 1204.09 207.129 1201.66 197.366C1199.35 188.066 1205.21 178.635 1214.5 175.971L1218.37 174.861Z"
        fill="#9CE736"
      />
      <path
        fill-rule="evenodd"
        clip-rule="evenodd"
        d="M684.872 1218.99L673.226 1244.81C671.345 1248.98 665.862 1249.95 662.604 1246.69L656.741 1240.83C649.631 1233.72 649.737 1222.14 657.098 1215.29C664.109 1208.76 675.194 1209.31 682.025 1216.14L684.872 1218.99Z"
        fill="#FF6B00"
      />
      <circle cx="166" cy="1268" r="13" fill="#01A791" />
      <circle cx="76" cy="141" r="9" fill="#1D5FC1" />
      <circle cx="818" cy="959" r="13" fill="#EEA2BF" />
      <circle cx="903" cy="323" r="13" fill="#01A791" />
      <circle cx="158.5" cy="358.5" r="11.5" fill="#01A791" />
      <circle cx="2075.5" cy="382.5" r="13.5" fill="#9CE736" />
      <circle cx="1837.5" cy="179.5" r="13.5" fill="#FFD445" />
      <circle cx="1558" cy="759" r="10" fill="#FF6C00" />
      <circle cx="2400.5" cy="484.5" r="13.5" fill="#1D5FC1" />
      <path
        fill-rule="evenodd"
        clip-rule="evenodd"
        d="M1668.03 910.824L1683.22 927.079L1662.99 932.5L1668.03 910.824Z"
        fill="#EEA2BF"
      />
      <path
        fill-rule="evenodd"
        clip-rule="evenodd"
        d="M1791.93 563.881L1807.12 580.137L1786.9 585.557L1791.93 563.881Z"
        fill="#01A791"
      />
      <path
        fill-rule="evenodd"
        clip-rule="evenodd"
        d="M966.476 1275.31L954.83 1301.13C952.949 1305.3 947.466 1306.28 944.208 1303.02L938.345 1297.15C931.235 1290.04 931.341 1278.46 938.702 1271.61C945.713 1265.08 956.798 1265.63 963.629 1272.46L966.476 1275.31Z"
        fill="#FFD445"
      />
      <path
        fill-rule="evenodd"
        clip-rule="evenodd"
        d="M1538.39 264.436L1531.92 285.724L1517.11 270.915L1538.39 264.436Z"
        fill="#FF6C00"
      />
      <path
        fill-rule="evenodd"
        clip-rule="evenodd"
        d="M1639.77 1165.59L1633.29 1186.87L1618.49 1172.06L1639.77 1165.59Z"
        fill="#01A791"
      />
      <path
        fill-rule="evenodd"
        clip-rule="evenodd"
        d="M1679.19 399.893L1681.05 400.844L1679.46 415.451C1679.2 417.81 1676.65 419.166 1674.52 418.078L1670.67 416.12C1666.02 413.745 1664.2 408.013 1666.74 403.454C1669.15 399.111 1674.71 397.611 1679.19 399.893Z"
        fill="#1D5FC1"
      />
      <path
        fill-rule="evenodd"
        clip-rule="evenodd"
        d="M2119.75 796.096L2136.68 818.805C2139.42 822.473 2137.61 827.741 2133.18 829.011L2125.21 831.298C2115.54 834.07 2105.47 828.364 2103.05 818.601C2100.74 809.301 2106.59 799.871 2115.88 797.207L2119.75 796.096Z"
        fill="#9CE736"
      />
      <path
        fill-rule="evenodd"
        clip-rule="evenodd"
        d="M2515.3 967.794L2503.65 993.616C2501.77 997.787 2496.29 998.759 2493.03 995.499L2487.17 989.634C2480.06 982.522 2480.16 970.943 2487.52 964.09C2494.54 957.561 2505.62 958.112 2512.45 964.946L2515.3 967.794Z"
        fill="#FF6B00"
      />
      <circle cx="1334" cy="1164" r="13" fill="#01A791" />
      <circle cx="2250" cy="1255" r="9" fill="#1D5FC1" />
      <circle cx="1900" cy="1280" r="13" fill="#EEA2BF" />
      <circle cx="2362" cy="171" r="13" fill="#01A791" />
      <circle cx="1343.5" cy="413.5" r="11.5" fill="#01A791" />
      <circle cx="1096" cy="511" r="13" fill="#9CE736" />
    </g>
    <path
      d="M2441.56 1267.17L2451.44 1293.97C2453.74 1300.19 2452.88 1307.16 2449.17 1312.62C2445.45 1318.08 2439.33 1321.33 2432.8 1321.33H2407.8C2405.49 1321.32 2403.18 1321.15 2400.89 1320.83L2421.23 1376H2433.38C2462.51 1376 2487.33 1352.95 2488.36 1323.33C2489.36 1295.12 2469.08 1270.78 2441.56 1267.17Z"
      fill="#2AB6CC"
    />
    <path
      d="M2409.66 1266.67H2434.66C2436.97 1266.68 2439.28 1266.85 2441.56 1267.17L2421.23 1212H2409.08C2379.95 1212 2355.13 1235.05 2354.1 1264.67C2353.09 1292.88 2373.38 1317.22 2400.89 1320.83L2391.01 1294.03C2388.72 1287.81 2389.57 1280.84 2393.29 1275.38C2397.01 1269.92 2403.13 1266.67 2409.66 1266.67Z"
      fill="#83C6AE"
    />
    <path
      d="M2432.8 1321.33C2439.33 1321.33 2445.45 1318.08 2449.17 1312.62C2452.88 1307.16 2453.74 1300.19 2451.44 1293.97L2441.56 1267.17C2439.28 1266.85 2436.97 1266.68 2434.66 1266.67H2409.66C2403.13 1266.67 2397.01 1269.92 2393.29 1275.38C2389.57 1280.84 2388.72 1287.81 2391.01 1294.03L2400.89 1320.83C2403.18 1321.15 2405.49 1321.32 2407.8 1321.33H2432.8Z"
      fill="#2A7C7C"
    />
    <ellipse
      cx="2372.87"
      cy="1348.67"
      rx="26.8676"
      ry="27.3333"
      fill="#2AB6CC"
    />
    <ellipse
      cx="2469.59"
      cy="1239.33"
      rx="26.8676"
      ry="27.3333"
      fill="#83C6AE"
    />
  </g>
  <defs>
    <linearGradient
      id="paint0_linear_313_299"
      x1="0"
      y1="720"
      x2="2560"
      y2="720"
      gradientUnits="userSpaceOnUse"
    >
      <stop stop-color="#F4F8F8" />
      <stop offset="1" stop-color="white" />
    </linearGradient>
    <linearGradient
      id="paint1_linear_313_299"
      x1="0"
      y1="541.5"
      x2="2560"
      y2="541.5"
      gradientUnits="userSpaceOnUse"
    >
      <stop stop-color="#A5B7D3" stop-opacity="0.117788" />
      <stop offset="1" stop-color="white" />
    </linearGradient>
    <clipPath id="clip0_313_299">
      <rect width="2560" height="1440" fill="white" />
    </clipPath>
  </defs>
</svg>
