<svg
  width="134"
  height="134"
  viewBox="0 0 134 134"
  fill="none"
  xmlns="http://www.w3.org/2000/svg"
>
  <path
    fill-rule="evenodd"
    clip-rule="evenodd"
    d="M121.614 86.1106V44.1856C121.614 38.7337 118.726 33.6898 114.026 30.9278C103.938 25.0009 86.1158 14.5294 75.201 8.11585C69.4362 4.73041 62.2758 4.80654 56.5865 8.31475C46.9261 14.2715 31.8541 23.565 22.1251 29.5653C16.2575 33.1833 12.6841 39.5824 12.6841 46.4754V89.4011C12.6841 96.2385 16.3124 102.562 22.2143 106.012L58.1263 127.003C62.8999 129.795 68.795 129.856 73.6269 127.165C84.1138 121.322 102.687 110.979 113.387 105.02C118.462 102.19 121.607 96.8373 121.607 91.028V86.1103L121.614 86.1106Z"
    fill="#FF4088"
  />
  <path
    fill-rule="evenodd"
    clip-rule="evenodd"
    d="M66.1067 1H66.2017L66.2864 1.00103H66.7713L66.856 1.00446H66.8663L66.951 1.00789H66.9602L67.046 1.01132H67.0528L67.1386 1.01475H67.1489L67.2312 1.01818H67.2415L67.3238 1.0216H67.3306L67.4164 1.02503H67.4266L67.5124 1.03189H67.5227L67.605 1.03875H67.6118L67.6941 1.04561H67.7044L67.7901 1.05247H67.797L67.8793 1.05933H67.8896L67.9753 1.06619H67.9856L68.0714 1.07304H68.0816L68.1674 1.0799H68.1777L68.26 1.08676H68.2703L68.3526 1.09362H68.3628L68.4486 1.10048H68.4589L68.5446 1.11077H68.5549L68.6406 1.12106H68.6475L68.7298 1.13134H68.7401L68.8224 1.14163H68.8327L68.9184 1.15192H68.9287L69.0144 1.16221H69.0213L69.1036 1.1725H69.1139L69.1996 1.18278H69.2099L69.2922 1.1965L69.3025 1.19993L69.3882 1.21365H69.3985L69.4808 1.22737H69.4877L69.5734 1.24108H69.5837L69.666 1.2548H69.6763L69.7586 1.26852H69.7654L69.8512 1.28223H69.8615L69.9438 1.29595L69.9541 1.29938L70.0364 1.3131L70.0466 1.31653L70.129 1.33367H70.1392L70.2215 1.34739H70.2318L70.3141 1.36454H70.3244L70.4102 1.38169H70.417L70.4993 1.39883H70.5096L70.5919 1.41598H70.5988L70.6845 1.43313L70.6948 1.43655L70.7805 1.4537H70.7874L70.8697 1.47428L70.88 1.47771L70.9623 1.49828H70.9726L71.0583 1.51886L71.0652 1.52229L71.1475 1.53943L71.1578 1.54286L71.2401 1.56001L71.2469 1.56344L71.3292 1.58402H71.3395L71.4218 1.60459L71.4321 1.60802L71.5144 1.6286L71.5213 1.63203L71.607 1.6526L71.6139 1.65603L71.6962 1.67661L71.7065 1.68004L71.7888 1.70061H71.7956L71.8779 1.72462H71.8882L71.9739 1.74519L71.9842 1.74862L72.0665 1.7692H72.0768L72.1591 1.79321L72.1694 1.79663L72.2517 1.82064L72.262 1.82407L72.3443 1.84807L72.3546 1.8515L72.4369 1.87551L72.4438 1.87894L72.5261 1.90294L72.5363 1.90637L72.6187 1.93038L72.6289 1.93381L72.7112 1.95781L72.7215 1.96124L72.8038 1.98868L72.8107 1.99211L72.893 2.01954H72.9033L72.9856 2.04698H72.9959L73.0782 2.07441L73.0885 2.07784L73.1708 2.10528L73.1811 2.1087L73.2634 2.13614L73.2702 2.13957L73.3525 2.167L73.3628 2.17043L73.4451 2.19787L73.452 2.2013L73.5343 2.22873L73.5411 2.23216L73.62 2.2596L73.6303 2.26302L73.7092 2.29046L73.7195 2.29389L73.7983 2.32475L73.8086 2.32818L73.8909 2.35905L73.9012 2.36248L73.9801 2.39334L73.987 2.39677L74.0693 2.4242L74.0761 2.42763L74.1584 2.4585L74.1687 2.46193L74.251 2.49279L74.2613 2.49622L74.3402 2.52708L74.3505 2.53051L74.4293 2.56481L74.4362 2.56824L74.5185 2.5991L74.5288 2.60253L74.6077 2.63682L74.618 2.64025L74.7003 2.67455L74.7105 2.67797L74.7929 2.71227L74.7997 2.7157L74.882 2.74999L74.8889 2.75342L74.9678 2.78771L74.9746 2.79114L75.0535 2.82544L75.0603 2.82887L75.1426 2.86316L75.1495 2.86659L75.2284 2.90088L75.2387 2.90431L75.3175 2.9386L75.3278 2.94203L75.4067 2.97633L75.4136 2.97976L75.4924 3.01748L75.5027 3.02091L75.5816 3.05863L75.5919 3.06206L75.6708 3.09978L75.6776 3.10321L75.7565 3.14094L75.7634 3.14436L75.8422 3.18209L75.8525 3.18552L75.9314 3.22324L75.9417 3.22667L76.0206 3.26439L76.0308 3.26782L76.1097 3.30554L76.1166 3.30897L76.1954 3.35012L76.2023 3.35698L76.2812 3.39471L76.288 3.39814L76.3635 3.43929L76.3738 3.44272L76.4527 3.48044L76.4595 3.48387L76.5384 3.52502L76.5487 3.52845L76.6241 3.5696L76.6344 3.57646L76.7133 3.61761L76.7236 3.62104L76.8024 3.66219L76.8093 3.66562L76.8848 3.70678L76.895 3.71363L76.9739 3.75479L76.9808 3.76165L77.0562 3.80623L77.0631 3.81309L77.1385 3.85767L77.1488 3.8611L77.2243 3.90568L77.2311 3.90911L77.3066 3.95369L77.3134 3.96055L77.3889 4.00513L77.3991 4.01199L77.4712 4.05657H77.478L116.332 26.8857L116.398 26.9234L116.404 26.9302L116.47 26.968L116.48 26.9714L116.542 27.0126L116.548 27.0194L116.61 27.0571L116.617 27.064L116.679 27.1017L116.686 27.1051L116.747 27.1429L116.754 27.1463L116.816 27.184L116.823 27.1874L116.885 27.2252L116.895 27.2286L116.957 27.2698L116.963 27.2732L117.025 27.3143L117.035 27.3178L117.097 27.3555L117.104 27.3589L117.166 27.4001L117.173 27.4069L117.234 27.4481L117.241 27.4549L117.299 27.4927L117.31 27.4961L117.371 27.5372L117.378 27.5407L117.44 27.5818L117.447 27.5852L117.505 27.6264L117.512 27.6298L117.57 27.671L117.577 27.6744L117.636 27.7156L117.642 27.7224L117.701 27.7636L117.708 27.767L117.766 27.8116L117.776 27.8184L117.834 27.8596L117.841 27.863L117.9 27.9042L117.906 27.9076L117.965 27.9488L117.972 27.9556L118.03 27.9968L118.037 28.0002L118.095 28.0414L118.102 28.0482L118.16 28.0894L118.167 28.0962L118.225 28.1408L118.236 28.1477L118.291 28.1922L118.301 28.1991L118.359 28.2437L118.369 28.2471L118.428 28.2917L118.435 28.2986L118.493 28.3431L118.5 28.35L118.555 28.3946L118.565 28.4014L118.623 28.4494L118.633 28.4597L118.743 28.5489L118.757 28.5592L118.867 28.6518L118.88 28.6621L118.994 28.7547L119.007 28.7649L119.12 28.8575L119.134 28.8678L119.244 28.9604L119.258 28.9741L119.367 29.0667L119.381 29.077L119.487 29.173L119.501 29.1833L119.607 29.2793L119.621 29.2896L119.727 29.3891L119.741 29.3994L119.844 29.4954L119.858 29.5057L119.964 29.6051L119.978 29.6188L120.081 29.7183L120.094 29.732L120.197 29.8315L120.211 29.8452L120.31 29.9446L120.324 29.9583L120.424 30.0612L120.437 30.0749L120.537 30.1778L120.547 30.1915L120.647 30.2944L120.66 30.3081L120.756 30.411L120.77 30.4247L120.866 30.5276L120.88 30.5413L120.976 30.6442L120.989 30.6579L121.085 30.7642L121.099 30.778L121.192 30.8877L121.202 30.9014L121.298 31.0077L121.312 31.0214L121.404 31.1312L121.418 31.1449L121.511 31.2546L121.521 31.2684L121.614 31.3781L121.627 31.3918L121.716 31.5016L121.727 31.5153L121.816 31.625L121.83 31.6387L121.919 31.7519L121.929 31.7656L122.015 31.8788L122.025 31.8925L122.111 32.0057L122.121 32.0194L122.207 32.1325L122.217 32.1497L122.303 32.2663L122.313 32.28L122.399 32.3932L122.409 32.4103L122.492 32.5269L122.502 32.5406L122.584 32.6572L122.594 32.671L122.677 32.7876L122.687 32.8047L122.766 32.9213L122.776 32.9384L122.855 33.0585L122.865 33.0756L122.941 33.1922L122.951 33.2059L123.026 33.3225L123.037 33.3362L123.116 33.4563L123.126 33.47L123.201 33.59L123.212 33.6072L123.284 33.7272L123.294 33.7443L123.369 33.8644L123.38 33.8815L123.452 34.0015L123.462 34.0187L123.534 34.1421L123.544 34.1559L123.613 34.2793L123.623 34.2965L123.692 34.4199L123.702 34.4371L123.771 34.5605L123.781 34.5777L123.85 34.7011L123.856 34.7183L123.925 34.8452L123.932 34.8623L123.997 34.9892L124.004 35.0063L124.069 35.1332L124.079 35.1469L124.141 35.2773L124.148 35.2944L124.213 35.4213L124.22 35.4384L124.282 35.5653L124.292 35.5825L124.35 35.7128L124.357 35.7299L124.415 35.8602L124.422 35.8774L124.481 36.0077L124.487 36.0248L124.546 36.1552L124.553 36.1723L124.607 36.3026L124.614 36.3198L124.669 36.4501L124.676 36.4672L124.727 36.601L124.734 36.6181L124.786 36.7484L124.793 36.7656L124.844 36.8993L124.851 36.9165L124.902 37.0502L124.909 37.0674L124.961 37.2011L124.967 37.2183L125.015 37.352L125.022 37.3691L125.067 37.5029L125.074 37.52L125.118 37.6538L125.125 37.6709L125.17 37.8047L125.177 37.8218L125.221 37.959L125.225 37.9761L125.266 38.1099L125.273 38.127L125.314 38.2642L125.317 38.2813L125.358 38.4185L125.365 38.4357L125.406 38.5728L125.413 38.59L125.451 38.7272L125.458 38.7443L125.496 38.8815L125.499 38.8986L125.533 39.0358L125.54 39.0564L125.578 39.197L125.581 39.2141L125.616 39.3547L125.622 39.3719L125.653 39.5125L125.66 39.5296L125.695 39.6702L125.698 39.6908L125.729 39.8314L125.732 39.8486L125.763 39.9892L125.767 40.0063L125.794 40.1469L125.797 40.1641L125.825 40.3047L125.828 40.3218L125.856 40.4624L125.859 40.4796L125.883 40.6236L125.887 40.6407L125.911 40.7813L125.914 40.8019L125.938 40.9459L125.941 40.9665L125.962 41.1106L125.965 41.1311L125.986 41.2717V41.2854L125.996 41.3609V41.3678L126.003 41.4398V41.4501L126.013 41.5221V41.5289L126.024 41.6009V41.6112L126.034 41.6833L126.037 41.6935L126.048 41.7656V41.7758L126.055 41.8479L126.058 41.8547L126.065 41.9267L126.068 41.937L126.075 42.009V42.0193L126.082 42.0913L126.085 42.1016L126.092 42.1736L126.096 42.1839L126.103 42.256V42.2662L126.109 42.3383V42.3485L126.116 42.4206V42.4308L126.123 42.5029V42.5132L126.13 42.5852V42.5955L126.133 42.6675V42.6778L126.137 42.7532V42.7635L126.144 42.8389V42.8458L126.147 42.9178V42.9281L126.151 43.0001V43.0104L126.154 43.0824V43.0927L126.157 43.1647V43.175L126.161 43.2505V43.2607L126.164 43.3328V43.3431L126.168 43.4151V43.4219L126.171 43.4939V91.3675L126.168 91.4464V91.5458L126.164 91.6247V91.635L126.161 91.7104V91.7173L126.157 91.7962V91.8064L126.154 91.8819V91.8887L126.151 91.9642V91.9745L126.147 92.0499L126.144 92.0602L126.14 92.1357V92.1459L126.137 92.2214V92.2282L126.133 92.3071V92.3174L126.127 92.3963V92.4031L126.12 92.482V92.4923L126.113 92.5677V92.578L126.109 92.6535V92.6638L126.103 92.7392V92.7495L126.096 92.825V92.8352L126.089 92.9107V92.921L126.082 92.9964L126.079 93.0033L126.072 93.0822L126.068 93.0924L126.061 93.1679V93.1782L126.055 93.2536L126.051 93.2639L126.041 93.3393V93.3496L126.031 93.4251V93.4319L126.02 93.5074V93.5177L126.01 93.5931L126.007 93.6034L125.996 93.6823L125.993 93.6926L125.983 93.768L125.979 93.7783L125.969 93.8538V93.864L125.959 93.9395V93.9498L125.948 94.0252L125.945 94.0355L125.935 94.111L125.931 94.1212L125.917 94.1967V94.2035L125.907 94.279V94.2859L125.893 94.3613L125.89 94.3716L125.88 94.447L125.876 94.4573L125.866 94.5328V94.5396L125.852 94.6151V94.6219L125.839 94.6974V94.7042L125.825 94.7797V94.79L125.811 94.862L125.808 94.8723L125.794 94.9443L125.791 94.9546L125.777 95.03L125.773 95.0403L125.756 95.1157V95.1226L125.739 95.1981V95.2049L125.725 95.2769V95.2872L125.708 95.3627V95.3695L125.695 95.445L125.691 95.4518L125.674 95.5238V95.5307L125.657 95.6027V95.613L125.64 95.685L125.636 95.6953L125.619 95.7673L125.616 95.7776L125.598 95.8496L125.595 95.8565L125.578 95.9285L125.574 95.9354L125.557 96.0074L125.554 96.0177L125.533 96.0897L125.53 96.1L125.513 96.172L125.509 96.1823L125.489 96.2543V96.2646L125.468 96.34L125.465 96.3503L125.444 96.4223V96.4326L125.424 96.5046L125.42 96.5149L125.4 96.5869L125.396 96.5972L125.376 96.6727L125.372 96.6795L125.352 96.7515L125.348 96.7584L125.328 96.8304L125.324 96.8407L125.3 96.9127L125.297 96.923L125.276 96.995L125.273 97.0019L125.252 97.0739L125.249 97.0842L125.228 97.1562L125.225 97.1631L125.201 97.2351L125.197 97.2454L125.173 97.3174L125.17 97.3277L125.146 97.3997L125.142 97.41L125.118 97.482L125.115 97.4923L125.091 97.5643L125.088 97.5712L125.064 97.6432L125.06 97.6535L125.036 97.7255L125.033 97.7358L125.009 97.8078L125.005 97.8146L124.981 97.8867L124.978 97.8969L124.954 97.969L124.95 97.9792L124.923 98.0478L124.919 98.0581L124.895 98.1267L124.892 98.137L124.868 98.2056L124.865 98.2159L124.841 98.2879L124.837 98.2982L124.81 98.3702L124.806 98.3805L124.779 98.4491L124.775 98.4594L124.748 98.5279L124.745 98.5382L124.717 98.6068L124.714 98.6171L124.686 98.6857L124.683 98.696L124.655 98.7646L124.652 98.7748L124.625 98.8434L124.621 98.8503L124.59 98.9189L124.587 98.9292L124.556 99.0012L124.553 99.0115L124.525 99.0801L124.522 99.0903L124.491 99.1589L124.487 99.1692L124.457 99.2378L124.453 99.2481L124.422 99.3167L124.419 99.3235L124.388 99.3921L124.384 99.4024L124.354 99.471L124.35 99.4779L124.319 99.5464L124.316 99.5533L124.285 99.6219L124.282 99.6288L124.251 99.6973L124.247 99.7042L124.213 99.7728L124.21 99.7796L124.175 99.8448L124.172 99.8551L124.141 99.9237L124.138 99.9305L124.103 99.9957L124.1 100.006L124.069 100.075L124.066 100.081L124.031 100.15L124.028 100.16L123.994 100.229L123.99 100.236L123.956 100.301L123.952 100.308L123.918 100.376L123.915 100.387L123.88 100.455L123.877 100.466L123.843 100.534L123.836 100.544L123.802 100.61L123.798 100.616L123.764 100.685L123.76 100.695L123.726 100.764L123.723 100.774L123.685 100.839L123.678 100.846L123.64 100.911L123.637 100.918L123.599 100.983L123.596 100.99L123.558 101.055L123.555 101.062L123.517 101.127L123.513 101.134L123.476 101.199L123.472 101.21L123.435 101.275L123.431 101.282L123.393 101.347L123.39 101.357L123.352 101.422L123.345 101.429L123.308 101.494L123.301 101.501L123.263 101.566L123.26 101.573L123.222 101.638L123.219 101.649L123.177 101.714L123.174 101.721L123.136 101.782L123.133 101.793L123.095 101.854L123.088 101.861L123.047 101.926L123.044 101.937L123.002 101.998L122.996 102.005L122.954 102.067L122.951 102.074L122.91 102.139L122.903 102.149L122.862 102.211L122.855 102.218L122.814 102.28L122.81 102.286L122.769 102.352L122.766 102.359L122.725 102.42L122.718 102.427L122.673 102.489L122.67 102.496L122.629 102.557L122.625 102.564L122.581 102.626L122.577 102.633L122.536 102.695L122.529 102.701L122.488 102.763L122.481 102.77L122.437 102.832L122.43 102.839L122.389 102.9L122.385 102.907L122.341 102.969L122.334 102.979L122.293 103.041L122.286 103.048L122.241 103.11L122.234 103.116L122.19 103.178L122.183 103.185L122.138 103.247L122.131 103.254L122.087 103.315L122.083 103.322L122.039 103.38L122.032 103.387L121.987 103.446L121.984 103.452L121.936 103.511L121.929 103.518L121.885 103.576L121.881 103.583L121.836 103.645L121.83 103.651L121.782 103.713L121.775 103.72L121.727 103.778L121.72 103.785L121.672 103.843L121.668 103.85L121.62 103.909L121.614 103.915L121.566 103.974L121.559 103.981L121.511 104.039L121.504 104.046L121.456 104.104L121.449 104.111L121.401 104.169L121.398 104.176L121.35 104.234L121.343 104.241L121.291 104.3L121.284 104.306L121.236 104.365L121.23 104.372L121.181 104.43L121.175 104.437L121.127 104.495L121.12 104.502L121.072 104.56L121.065 104.567L121.017 104.622L121.01 104.629L120.959 104.687L120.952 104.694L120.904 104.752L120.897 104.759L120.845 104.817L120.839 104.824L120.791 104.882L120.784 104.889L120.732 104.944L120.725 104.951L120.674 105.006L120.667 105.013L120.616 105.068L120.609 105.075L120.557 105.129L120.55 105.136L120.499 105.191L120.492 105.198L120.441 105.253L120.434 105.26L120.382 105.315L120.376 105.321L120.324 105.376L120.317 105.383L120.262 105.438L120.256 105.445L120.204 105.5L120.197 105.507L120.146 105.558L120.139 105.565L120.084 105.62L120.074 105.627L120.019 105.682L120.012 105.688L119.957 105.74L119.95 105.747L119.895 105.802L119.889 105.808L119.834 105.86L119.827 105.867L119.772 105.918L119.765 105.925L119.71 105.976L119.703 105.983L119.649 106.035L119.642 106.042L119.587 106.093L119.58 106.1L119.525 106.151L119.518 106.158L119.46 106.21L119.453 106.213L119.398 106.265L119.391 106.271L119.333 106.323L119.326 106.33L119.268 106.381L119.261 106.385L119.203 106.436L119.196 106.443L119.138 106.491L119.127 106.498L119.069 106.546L119.062 106.553L119.004 106.604L118.997 106.611L118.939 106.662L118.932 106.669L118.874 106.721L118.867 106.727L118.808 106.775L118.802 106.782L118.74 106.83L118.733 106.834L118.675 106.882L118.668 106.889L118.609 106.937L118.599 106.944L118.541 106.992L118.534 106.998L118.476 107.046L118.469 107.053L118.411 107.101L118.404 107.108L118.342 107.156L118.335 107.163L118.277 107.208L118.27 107.214L118.208 107.262L118.201 107.269L118.14 107.317L118.133 107.324L118.071 107.372L118.064 107.379L118.002 107.427L117.996 107.43L117.934 107.475L117.927 107.479L117.865 107.523L117.858 107.527L117.797 107.571L117.786 107.575L117.725 107.619L117.718 107.626L117.656 107.671L117.649 107.677L117.588 107.722L117.581 107.729L117.519 107.773L117.509 107.78L117.447 107.825L117.44 107.828L117.375 107.873L117.365 107.876L117.299 107.921L117.293 107.928L117.227 107.972L117.221 107.979L117.155 108.02L117.149 108.027L117.083 108.072L117.077 108.079L117.015 108.123L117.005 108.13L116.939 108.171L116.933 108.175L116.867 108.216L116.857 108.219L116.792 108.26L116.785 108.267L116.72 108.308L116.713 108.315L116.648 108.356L116.641 108.36L116.576 108.401L116.566 108.404L116.5 108.446L116.494 108.452L116.428 108.494L116.418 108.497L116.353 108.538L116.343 108.545L116.278 108.586L116.267 108.593L116.199 108.634L116.192 108.641L116.127 108.679L116.116 108.682L116.051 108.72L116.044 108.727L115.976 108.768L115.965 108.775L115.897 108.813L115.89 108.819L115.825 108.857L115.815 108.861L115.746 108.898L115.736 108.902L115.667 108.939L115.66 108.943L115.595 108.981L115.592 108.984L75.8354 131.138H75.8319L75.7702 131.175L75.7599 131.179L75.6948 131.216L75.6845 131.223L75.6193 131.258L75.609 131.261L75.5439 131.295L75.537 131.299L75.4719 131.333L75.4616 131.336L75.3964 131.371L75.3861 131.374L75.321 131.408L75.3107 131.412L75.2455 131.446L75.2387 131.45L75.1735 131.484L75.1666 131.487L75.1015 131.518L75.0946 131.522L75.026 131.556L75.0192 131.563L74.954 131.597L74.9472 131.6L74.882 131.631L74.8752 131.635L74.81 131.666L74.8031 131.669L74.738 131.703L74.7311 131.707L74.6625 131.738L74.6557 131.741L74.5905 131.772L74.5837 131.775L74.5151 131.806L74.5082 131.81L74.4431 131.841L74.4362 131.844L74.371 131.875L74.3608 131.882L74.2922 131.913L74.2853 131.916L74.2167 131.943L74.2099 131.947L74.1413 131.978L74.1344 131.985L74.0658 132.015L74.0555 132.019L73.9904 132.046L73.9835 132.05L73.9149 132.081L73.9081 132.084L73.8395 132.111L73.8326 132.115L73.7641 132.142L73.7572 132.146L73.6886 132.173L73.6783 132.177L73.6097 132.204L73.5994 132.207L73.5309 132.235L73.5206 132.238L73.4554 132.266L73.4486 132.269L73.38 132.293L73.3731 132.297L73.3045 132.324L73.2942 132.327L73.2256 132.355L73.2154 132.358L73.1468 132.386L73.1365 132.389L73.0679 132.413L73.0576 132.417L72.989 132.444L72.9787 132.448L72.9101 132.472L72.9033 132.475L72.8347 132.499L72.8244 132.502L72.7558 132.526L72.7455 132.53L72.677 132.554L72.6667 132.557L72.5981 132.581L72.5912 132.585L72.5226 132.609L72.454 132.633L72.4438 132.636L72.3717 132.657L72.3615 132.66L72.2929 132.681L72.286 132.684L72.2174 132.708L72.2106 132.712L72.1385 132.732L72.1283 132.736L72.0597 132.756L72.0494 132.76L71.9808 132.78L71.9705 132.784L71.8985 132.808L71.8848 132.811L71.7476 132.852L71.7305 132.859L71.5899 132.9L71.5727 132.904L71.4321 132.945L71.415 132.948L71.2744 132.986L71.2572 132.993L71.1166 133.031L71.0995 133.034L70.9589 133.072L70.9383 133.075L70.7977 133.109L70.7805 133.113L70.6399 133.147L70.6194 133.151L70.4787 133.185L70.4616 133.188L70.321 133.219L70.3039 133.223L70.1598 133.253L70.1392 133.257L69.9952 133.288L69.9781 133.291L69.834 133.319L69.8169 133.322L69.6763 133.346L69.6591 133.349L69.5185 133.377L69.5014 133.38L69.3574 133.404L69.3402 133.408L69.1962 133.432L69.179 133.435L69.035 133.456L69.0178 133.459L68.8738 133.48L68.8567 133.483L68.7126 133.504L68.6955 133.507L68.5515 133.528L68.5309 133.531L68.3869 133.548L68.3697 133.552L68.2257 133.569L68.2085 133.572L68.0645 133.589L67.9205 133.603H67.9033L67.7593 133.613L67.7421 133.617L67.5981 133.627H67.581L67.4369 133.637H67.4198L67.2757 133.648L67.2552 133.651L67.1111 133.661H67.094L66.95 133.668H66.9328L66.7888 133.675H66.7682L66.6242 133.679H66.607L66.463 133.682H66.4458L66.3018 133.686H65.7943L65.6502 133.682L65.5062 133.679H65.4856L65.3416 133.675H65.3385L65.1945 133.668L65.1773 133.665L65.0333 133.658H65.0162L64.8721 133.651L64.855 133.648L64.7109 133.641H64.6938L64.5498 133.631L64.5326 133.627L64.3886 133.613L64.368 133.61L64.224 133.596L64.2034 133.593L64.0594 133.579L64.0422 133.576L63.8982 133.562H63.881L63.737 133.548L63.7199 133.545L63.5758 133.528H63.5553L63.4112 133.511L63.3907 133.507L63.2466 133.487L63.2295 133.483L63.0854 133.463L63.0683 133.459L62.9243 133.439L62.9071 133.435L62.7631 133.415L62.7459 133.411L62.6053 133.387H62.595L62.451 133.36L62.4325 133.356L62.2919 133.329L62.2747 133.325L62.1341 133.298L62.117 133.295L61.9764 133.267L61.9558 133.264L61.8132 133.236L61.796 133.233L61.6554 133.202L61.6348 133.195L61.4942 133.164L61.4771 133.161L61.3365 133.127L61.3173 133.12L61.1767 133.085L61.1595 133.079L61.0189 133.041L61.0018 133.037L60.8612 133L60.844 132.993L60.7034 132.955L60.6863 132.948L60.5457 132.91L60.5285 132.904L60.3879 132.862L60.3673 132.856L60.2267 132.814L60.2096 132.808L60.069 132.766L60.0518 132.76L59.9112 132.718L59.8941 132.715L59.7576 132.67L59.7439 132.667L59.6719 132.643H59.6626L59.594 132.622L59.5837 132.619L59.5152 132.595L59.5049 132.592L59.4363 132.568L59.426 132.564L59.3574 132.54L59.3471 132.537L59.2785 132.513L59.2682 132.509L59.1997 132.485L59.1928 132.482L59.1242 132.458L59.1174 132.454L59.0488 132.43L59.0419 132.427L58.9733 132.4L58.963 132.396L58.8944 132.369L58.8842 132.365L58.8156 132.338L58.8087 132.334L58.7401 132.307L58.7298 132.303L58.6613 132.276L58.6544 132.273L58.5858 132.245L58.5755 132.242L58.5069 132.214L58.5001 132.211L58.4315 132.183L58.4246 132.18L58.356 132.153L58.3458 132.149L58.2772 132.122L58.2669 132.118L58.1983 132.091L58.188 132.087L58.1194 132.06L58.1091 132.057L58.0405 132.029L58.0337 132.026L57.9651 131.995L57.9548 131.991L57.8897 131.961L57.8828 131.957L57.8142 131.926L57.8073 131.923L57.7388 131.892L57.7319 131.889L57.6633 131.861L57.653 131.858L57.5879 131.827L57.5776 131.823L57.509 131.793L57.4987 131.789L57.4336 131.758L57.4267 131.751L57.3615 131.72L57.3547 131.717L57.2895 131.686L57.2827 131.683L57.2141 131.652L57.2072 131.645L57.1386 131.611L57.1318 131.604L57.0666 131.573L57.0563 131.57L56.9877 131.539L56.9809 131.532L56.9157 131.498L56.9054 131.494L56.8368 131.46L56.83 131.456L56.7648 131.422L56.7545 131.419L56.6894 131.384L56.6825 131.381L56.6174 131.347L56.6071 131.34L56.5419 131.306L56.5351 131.302L56.4699 131.268L56.463 131.264L56.3979 131.23L56.3876 131.223L56.3224 131.189L56.3156 131.186L56.2504 131.148L56.2401 131.141L56.175 131.107L56.1647 131.103L56.0995 131.069L56.0892 131.065L56.0241 131.031L56.0138 131.028L55.9486 130.99L55.9384 130.987L55.8766 130.949L55.8663 130.945L55.8046 130.908L55.8012 130.904L19.8617 109.927L19.8583 109.924L19.7829 109.879L19.776 109.876L19.7006 109.831L19.6903 109.828L19.6114 109.783L19.6011 109.78L19.5257 109.732L19.5188 109.728L19.4434 109.68L19.4365 109.673L19.361 109.625L19.3542 109.618L19.2787 109.57L19.2685 109.567L19.193 109.522L19.1827 109.516L19.1073 109.468L19.1004 109.461L19.025 109.413H19.0425L18.967 109.365L18.9567 109.358L18.8813 109.31L18.8744 109.303L18.799 109.255L18.7894 109.248L18.7139 109.197L18.7036 109.19L18.6282 109.138L18.6213 109.131L18.5459 109.083L18.539 109.077L18.4636 109.025L18.4567 109.018L18.3813 108.967L18.3744 108.96L18.3024 108.909L18.2921 108.902L18.2184 108.85L18.2115 108.843L18.1395 108.792L18.1309 108.785L18.0589 108.734L18.0497 108.727L17.9777 108.675L17.9708 108.672L17.8988 108.62L17.8919 108.614L17.8209 108.562L17.8141 108.555L17.7434 108.504L17.7331 108.5L17.6611 108.449L17.6543 108.442L17.5823 108.387L17.5754 108.38L17.5034 108.329L17.4945 108.322L17.4224 108.267L17.4135 108.26L17.3449 108.206L17.3381 108.199L17.2695 108.144L17.2626 108.14L17.1941 108.086L17.1872 108.079L17.1186 108.024L17.1117 108.017L17.0432 107.962L17.0363 107.955L16.9677 107.9L16.9609 107.893L16.8923 107.839L16.8854 107.832L16.8168 107.777L16.81 107.77L16.7414 107.712L16.7345 107.708L16.6659 107.653L16.6591 107.647L16.5925 107.592L16.5857 107.585L16.5171 107.527L16.5102 107.52L16.4417 107.465L16.4348 107.458L16.3662 107.4L16.3594 107.396L16.2921 107.341L16.2853 107.334L16.2201 107.28L16.2133 107.273L16.1481 107.214L16.1412 107.208L16.0761 107.149L16.0692 107.142L16.0041 107.084L15.9972 107.077L15.9321 107.019L15.9252 107.012L15.86 106.954L15.8532 106.947L15.788 106.885L15.7812 106.882L15.716 106.824L15.7057 106.817L15.6423 106.755L15.6354 106.748L15.5703 106.69L15.5634 106.683L15.4996 106.621L15.4928 106.614L15.431 106.553L15.4242 106.546L15.3624 106.484L15.3556 106.477L15.2904 106.415L15.2836 106.409L15.2184 106.347L15.2116 106.343L15.1498 106.282L15.143 106.275L15.0812 106.213L15.0744 106.206L15.0127 106.144L15.0058 106.138L14.9441 106.076L14.9372 106.069L14.8755 106.007L14.8686 106L14.8069 105.939L14.8 105.932L14.7417 105.87L14.7349 105.863L14.6731 105.802L14.6663 105.795L14.6046 105.73L14.5977 105.723L14.5394 105.658L14.5325 105.651L14.4742 105.586L14.4674 105.579L14.4057 105.513L14.3988 105.507L14.3405 105.441L14.3336 105.435L14.2753 105.369L14.2685 105.363L14.2102 105.297L14.2033 105.291L14.145 105.225L14.1382 105.219L14.0799 105.153L14.0764 105.147L14.0216 105.081L14.0147 105.075L13.9564 105.009L13.9496 105.003L13.8878 104.934L13.881 104.927L13.8227 104.862L13.8158 104.855L13.7575 104.786L13.7507 104.78L13.6958 104.714L13.6924 104.708L13.6375 104.642L13.6306 104.636L13.5758 104.567L13.5689 104.56L13.5106 104.492L13.5037 104.485L13.4489 104.42L13.442 104.413L13.3837 104.348L13.3769 104.341L13.322 104.276L13.3151 104.269L13.2603 104.2L13.2534 104.193L13.1985 104.125L13.1917 104.118L13.1368 104.049L13.1299 104.042L13.0751 103.974L13.0682 103.967L13.0133 103.898L13.0099 103.891L12.9585 103.823L12.9516 103.816L12.9002 103.747L12.8968 103.741L12.8453 103.672L12.8385 103.665L12.787 103.593L12.7802 103.586L12.7287 103.518L12.7219 103.511L12.6704 103.442L12.667 103.435L12.6155 103.363L12.6121 103.356L12.5607 103.284L12.5572 103.278L12.5058 103.209L12.5024 103.202L12.4509 103.134L12.4441 103.127L12.3926 103.055L12.3858 103.048L12.3343 102.976L12.3275 102.965L12.2795 102.893L12.2726 102.887L12.2246 102.815L12.2177 102.808L12.1697 102.736L12.1629 102.729L12.1149 102.657L12.1114 102.65L12.0634 102.578L12.0566 102.568L12.0086 102.496L12.0017 102.489L11.9537 102.417L11.9468 102.41L11.8988 102.338L11.892 102.331L11.8439 102.259L11.8371 102.252L11.7925 102.18L11.7891 102.173L11.7445 102.101L11.7376 102.091L11.6896 102.019L11.6828 102.009L11.6348 101.937L11.6313 101.93L11.5833 101.854L11.5799 101.844L11.5353 101.772L11.5284 101.765L11.4839 101.693L11.477 101.686L11.4324 101.611L11.4256 101.601L11.381 101.529L11.3776 101.522L11.333 101.446L11.3295 101.439L11.285 101.367L11.2781 101.357L11.2335 101.282L11.2267 101.271L11.1821 101.196L11.1752 101.186L11.1341 101.11L11.1272 101.103L11.0826 101.028L11.0792 101.021L11.038 100.946L11.0346 100.939L10.9935 100.863L10.99 100.853L10.9489 100.778L10.942 100.767L10.9009 100.692L10.8974 100.682L10.8563 100.603L10.8529 100.596L10.8117 100.52L10.8083 100.51L10.7671 100.435L10.7637 100.424L10.7226 100.349L10.7191 100.339L10.6814 100.26L10.678 100.253L10.6368 100.174L10.6334 100.164L10.5922 100.085L10.5854 100.078L10.5477 99.9991L10.5442 99.9923L10.5065 99.9168L10.5031 99.9065L10.4654 99.8277V99.8311L10.4276 99.7522L10.4208 99.7419L10.383 99.663L10.3796 99.6528L10.3419 99.5773L10.3385 99.567L10.3007 99.4882L10.2973 99.4813L10.2596 99.4024L10.2562 99.3956L10.2219 99.3167L10.2184 99.3098L10.1807 99.2309L10.1773 99.2241L10.1396 99.1452L10.1361 99.1384L10.0984 99.0595L10.095 99.0492L10.0607 98.9703L10.0573 98.9635L10.0195 98.8846L10.0161 98.8743L9.97838 98.7954L9.97496 98.7886L9.94066 98.7097L9.93723 98.7028L9.90294 98.624L9.89951 98.6137L9.86522 98.5348L9.86179 98.5279L9.83092 98.4491L9.82749 98.4422L9.7932 98.3633L9.78977 98.353L9.75891 98.2707L9.75548 98.2639L9.72118 98.185L9.71775 98.1747L9.68689 98.0993L9.68346 98.089L9.64917 98.0067L9.64574 97.9998L9.61487 97.9175L9.61145 97.9072L9.58058 97.8249L9.57715 97.8181L9.54629 97.7358L9.54286 97.7255L9.51199 97.6432L9.50857 97.6363L9.4777 97.554L9.47427 97.5471L9.44684 97.4648L9.44341 97.4546L9.41254 97.3723L9.40911 97.3654L9.38168 97.2831L9.37825 97.2728L9.35082 97.1905L9.34739 97.1802L9.31652 97.0979L9.31309 97.0876L9.28566 97.0053L9.28223 96.9985L9.25479 96.9162L9.25137 96.9093L9.22393 96.827L9.2205 96.8167L9.19307 96.7344L9.18964 96.7241L9.1622 96.6418L9.15877 96.6315L9.13134 96.5492L9.12791 96.5389L9.10047 96.4566L9.09739 96.4467L9.07338 96.3644L9.06995 96.3575L9.04252 96.2718L9.03909 96.2615L9.01508 96.1758L9.01165 96.1655L8.98765 96.0832L8.98422 96.0729L8.96021 95.9906L8.95678 95.9803L8.93278 95.8945L8.92935 95.8843L8.90534 95.7985L8.90192 95.7917L8.87791 95.7059L8.87448 95.7025L8.85048 95.6168L8.84705 95.6099L8.82647 95.5276L8.82304 95.5208L8.80246 95.4384V95.4316L8.77846 95.3459V95.3356L8.75788 95.2533L8.75445 95.243L8.73388 95.1607L8.73045 95.1504L8.70987 95.0647H8.7133L8.69273 94.9789L8.6893 94.9721L8.66872 94.8863L8.66529 94.8795L8.64472 94.7937L8.64129 94.7869L8.62071 94.7011L8.62414 94.6977L8.60356 94.612L8.60013 94.6017L8.57956 94.516L8.57613 94.5057L8.55898 94.4199L8.55555 94.4096L8.53498 94.3239L8.53155 94.3171L8.5144 94.2313L8.51097 94.221L8.49382 94.1353L8.4904 94.125L8.47325 94.0393L8.4561 93.9535V93.9433L8.43896 93.8541V93.8438L8.42181 93.7581L8.41838 93.7478L8.3978 93.6655V93.6552L8.38066 93.5626L8.37723 93.5523L8.36008 93.4632L8.35665 93.4529L8.34293 93.3671L8.3395 93.3568L8.32579 93.2711V93.2608L8.31207 93.1751V93.1648L8.29835 93.0791L8.29492 93.0688L8.28121 92.983V92.9865L8.26749 92.9007V92.8939L8.25377 92.8081V92.7979L8.24005 92.7121V92.7018L8.22634 92.6161V92.6092L8.21605 92.5201V92.5098L8.20576 92.4241V92.4172L8.19204 92.328L8.18861 92.3177L8.17833 92.232V92.2217L8.16804 92.1326L8.16461 92.1223L8.15432 92.0331V92.0228L8.14403 91.9337L8.1406 91.9234L8.13031 91.8342V91.8239L8.12003 91.7348L8.1166 91.7279L8.10631 91.6387L8.09945 91.5496V91.5393L8.08916 91.4501L8.08573 91.4398L8.07545 91.3507V91.3404L8.06859 91.2512L8.06516 91.2409L8.0583 91.1518V91.1415L8.05144 91.0523V91.042L8.04458 90.9529L8.03772 90.8637V90.8534L8.03086 90.7643V90.754L8.02401 90.6648V90.554L8.02058 90.4649V90.4546L8.01715 90.3654V90.3551L8.01372 90.266L8.01029 90.2557L8.00686 90.1665V90.0705L8.00343 89.9813V89.9711L8 89.8819V46.4665L8.00343 46.3808V46.271L8.00686 46.1819V45.8664L8.01029 45.7772V45.7703L8.01372 45.6812V45.6709L8.01715 45.5817V45.5714L8.02058 45.4823V45.4754L8.02401 45.3862V45.376L8.02743 45.2868V45.2765L8.03429 45.1839V45.1736L8.04115 45.0845V45.0776L8.04458 44.9884V44.9782L8.05144 44.889V44.8787L8.05487 44.7895V44.7793L8.0583 44.6901V44.6798L8.06516 44.5906V44.5804L8.07202 44.4912V44.4809L8.0823 44.3917V44.3815L8.08916 44.2923L8.09259 44.2854L8.09945 44.1963V44.1894L8.10974 44.1003V44.0934L8.12003 44.0042L8.12346 43.9939L8.13374 43.9048V43.8945L8.14403 43.8053V43.7985L8.15432 43.7093V43.7024L8.16461 43.6133L8.16804 43.603L8.17833 43.5138V43.5035L8.18861 43.4178V43.4075L8.1989 43.3184V43.3081L8.20919 43.2189L8.21262 43.2086L8.22291 43.1229V43.1126L8.23662 43.0234V43.0131L8.24691 42.924L8.25034 42.9137L8.26063 42.828L8.26406 42.8177L8.27778 42.7285L8.28121 42.7217L8.29492 42.6325V42.6256L8.30864 42.5365V42.5296L8.32236 42.4439L8.32579 42.4336L8.3395 42.3479V42.3376L8.36351 42.2484L8.36694 42.2381L8.38066 42.1524V42.1421L8.3978 42.0564V42.0495L8.41495 41.9638V41.9569L8.4321 41.8678L8.43553 41.8609L8.45267 41.7752L8.4561 41.7683L8.47325 41.6826L8.47668 41.6723L8.49382 41.5865L8.49725 41.5763L8.5144 41.4905V41.4802L8.53155 41.3945V41.3876L8.54869 41.3019L8.55212 41.2951L8.56927 41.2093L8.5727 41.2025L8.59328 41.1167V41.1064L8.61385 41.0207L8.61728 41.0104L8.63443 40.9247L8.63786 40.9144L8.65843 40.8287V40.8184L8.67901 40.7326L8.68244 40.7224L8.70301 40.6366V40.6263L8.72359 40.5406L8.72702 40.5337L8.7476 40.448V40.4411L8.76817 40.3554L8.7716 40.3451L8.79561 40.2594V40.2525L8.81961 40.1668V40.1599L8.84362 40.0742L8.84705 40.0639L8.87105 39.9782V39.9679L8.89506 39.8822L8.89849 39.8719L8.92249 39.7896L8.92592 39.7827L8.94993 39.697L8.95336 39.6884L8.97736 39.6027L8.98079 39.5924L9.0048 39.5087L9.00823 39.5019L9.03566 39.4161L9.03909 39.4093L9.06309 39.327L9.06652 39.3201L9.09053 39.2368L9.09396 39.2299L9.11796 39.1449L9.12139 39.1346L9.14883 39.0509L9.15226 39.0406L9.17969 38.9583V38.9514L9.20713 38.8691V38.8589L9.23456 38.7765L9.23799 38.7697L9.26543 38.6874L9.26885 38.6771L9.29629 38.5948L9.29972 38.5845L9.32715 38.5022L9.33058 38.4919L9.35802 38.4096L9.36145 38.4027L9.39231 38.3204L9.39574 38.3136L9.42317 38.2313L9.4266 38.2227L9.45404 38.1404L9.45747 38.1335L9.48833 38.0512L9.49176 38.0444L9.52263 37.9621V37.9552L9.55349 37.8729L9.55692 37.8661L9.58778 37.7838L9.59121 37.7735L9.62208 37.6912L9.62551 37.6843L9.65637 37.602L9.6598 37.5917L9.69409 37.5128L9.69752 37.506L9.73182 37.4237L9.73524 37.4168L9.76954 37.3345L9.77297 37.3242L9.80726 37.2419L9.81069 37.2316L9.84498 37.1493L9.84841 37.139L9.88271 37.0567L9.88614 37.0464L9.92043 36.9641L9.92386 36.9539L9.95815 36.8716L9.96158 36.863L9.99587 36.7841L9.9993 36.7738L10.0336 36.6949L10.037 36.6847L10.0713 36.6023L10.0747 36.5955L10.1125 36.5132L10.1159 36.5063L10.1536 36.4275L10.1571 36.4206L10.1913 36.3417L10.1948 36.3314L10.2325 36.2526L10.2359 36.2457L10.2737 36.1668L10.2771 36.16L10.3148 36.0811L10.3182 36.0742L10.356 35.9954L10.3594 35.9851L10.3971 35.9062L10.4005 35.8993L10.4383 35.8205L10.4417 35.8102L10.4794 35.7313L10.4828 35.7244L10.5206 35.6456L10.524 35.6387L10.5617 35.5598L10.5651 35.553L10.6029 35.4741L10.6063 35.4672L10.6474 35.3918L10.6509 35.3849L10.692 35.3061L10.6989 35.2958L10.74 35.2169L10.7435 35.21L10.7846 35.1312L10.7881 35.1209L10.8292 35.0454L10.8326 35.0386L10.8738 34.9631L10.8772 34.9563L10.9184 34.8808L10.9218 34.8705L10.9629 34.7951L10.9698 34.7882L11.011 34.7128L11.0144 34.7025L11.0555 34.627L11.0624 34.6202L11.1035 34.5447L11.107 34.5379L11.1481 34.4624L11.155 34.4522L11.1996 34.3767L11.203 34.3699L11.2442 34.2944L11.2476 34.2875L11.2922 34.2121L11.2956 34.2052L11.3402 34.1298L11.3436 34.1229L11.3882 34.0475L11.395 34.0406L11.4396 33.9652L11.4431 33.9583L11.4876 33.8829L11.4945 33.876L11.5391 33.8006L11.5425 33.7937L11.5871 33.7183L11.5939 33.7114L11.6385 33.636L11.642 33.6291L11.69 33.5537L11.6968 33.5434L11.7448 33.4679L11.7483 33.4611L11.7928 33.3891L11.7997 33.3822L11.8477 33.3102L11.8546 33.3033L11.8992 33.2279L11.9026 33.221L11.9506 33.149L11.954 33.1421L12.002 33.0701L12.0089 33.0633L12.0569 32.9878L12.0638 32.981L12.1118 32.909L12.1152 32.8987L12.1632 32.8266L12.1666 32.8198L12.2147 32.7478L12.2181 32.7409L12.2695 32.6689L12.2764 32.662L12.3244 32.59L12.3313 32.5832L12.3827 32.5111L12.3861 32.5043L12.4376 32.4323L12.441 32.4254L12.4924 32.3534L12.4959 32.3465L12.5473 32.2745L12.5542 32.2677L12.6056 32.1957L12.609 32.1888L12.6605 32.1168L12.6673 32.1099L12.7188 32.0413L12.7222 32.0345L12.7736 31.9625L12.7805 31.9556L12.8319 31.887L12.8388 31.8801L12.8902 31.8116L12.8971 31.8047L12.9485 31.7361L12.9554 31.7293L13.0068 31.6607L13.0103 31.6538L13.0617 31.5852L13.0686 31.5784L13.1234 31.5098L13.1303 31.5029L13.1852 31.4343L13.192 31.4275L13.2469 31.3589L13.2537 31.352L13.3086 31.2834L13.3155 31.2766L13.3703 31.208L13.3772 31.1977L13.4321 31.1291L13.4355 31.1223L13.4904 31.0537L13.4972 31.0468L13.5521 30.9782L13.559 30.9714L13.6138 30.9062L13.6207 30.8994L13.6756 30.8308L13.6824 30.8239L13.7373 30.7553L13.7441 30.7485L13.8024 30.6833L13.8093 30.6765L13.8642 30.6079L13.871 30.601L13.9259 30.5359L13.9328 30.529L13.9876 30.4604L13.9945 30.4535L14.0528 30.385L14.0562 30.3781L14.1145 30.3129L14.1214 30.3061L14.1797 30.2409L14.1865 30.2341L14.2448 30.1689L14.2517 30.1621L14.31 30.0969L14.3134 30.09L14.3717 30.0249L14.3786 30.018L14.4369 29.9529L14.4437 29.946L14.502 29.8808L14.5055 29.874L14.5638 29.8088L14.5706 29.802L14.6323 29.7368L14.6358 29.73L14.6975 29.6648L14.7044 29.6579L14.7695 29.5962L14.7764 29.5894L14.8381 29.5242L14.845 29.5173L14.9067 29.4522L14.9135 29.4453L14.9753 29.3836L14.9821 29.3767L15.0439 29.315L15.0507 29.3081L15.1124 29.2464L15.1193 29.2396L15.1845 29.1778L15.1913 29.171L15.253 29.1092L15.2599 29.1024L15.3216 29.0407L15.3285 29.0338L15.3902 28.9721L15.3971 28.9652L15.4588 28.9035L15.4657 28.8966L15.5274 28.8349L15.5343 28.828L15.596 28.7663L15.6028 28.7595L15.6646 28.6977L15.6714 28.6909L15.7366 28.6326L15.7434 28.6257L15.8086 28.5674L15.8155 28.5606L15.8806 28.4988L15.8875 28.492L15.9526 28.4302L15.9595 28.4268L16.0246 28.3685L16.0315 28.3651L16.0967 28.3068L16.1035 28.2999L16.1687 28.2416L16.1755 28.2348L16.2407 28.1765L16.2476 28.1696L16.3127 28.1113L16.3196 28.1079L16.3882 28.0496L16.395 28.0427L16.4636 27.9844L16.4705 27.9776L16.539 27.9193L16.5459 27.9124L16.6145 27.8575L16.6214 27.8507L16.6899 27.7958L16.6968 27.789L16.762 27.7341L16.7688 27.7272L16.8374 27.6724L16.8443 27.6655L16.9128 27.6106L16.9197 27.6072L16.9883 27.5523L16.9952 27.5455L17.0637 27.4906L17.0706 27.4837L17.1392 27.4289L17.146 27.422L17.2181 27.3671L17.2249 27.3603L17.2935 27.3054L17.3004 27.2986L17.3724 27.2437L17.3792 27.2368L17.4513 27.182L17.4581 27.1751L17.5267 27.1202L17.5336 27.1168L17.6056 27.0619L17.6124 27.0551L17.681 27.0002L17.6879 26.9933L17.7599 26.9419L17.7668 26.935L17.8388 26.8802L17.8456 26.8733L17.9176 26.8219L17.9245 26.8184L17.9965 26.767L18.0068 26.7602L18.0788 26.7087L18.0857 26.7053L18.1577 26.6538L18.1646 26.647L18.2366 26.5921L18.2434 26.5887L18.3189 26.5372L18.3257 26.5304L18.3977 26.4789L18.408 26.4755L18.4801 26.4241L18.4869 26.4206L18.5589 26.3692L18.5658 26.3658L18.6412 26.3143L18.6481 26.3075L18.7201 26.256L18.727 26.2526L18.8024 26.2046L18.8093 26.2012L18.8813 26.1497L18.8916 26.1429L18.967 26.0949L18.9739 26.088L19.0493 26.0366L19.0562 26.0297L19.1316 25.9817L19.1419 25.9783L19.2174 25.9303L19.2242 25.9234L19.2997 25.8754L19.3065 25.872L19.382 25.8239L19.3888 25.8205L19.4643 25.7725L19.4711 25.7691L19.5466 25.7211L19.5569 25.7176L19.6323 25.673H19.6357L54.104 4.41116L54.1074 4.40773L54.1795 4.36315L54.1863 4.35972L54.2618 4.31171L54.272 4.30485L54.3475 4.26027L54.3578 4.25341L54.4332 4.20883L54.4435 4.20197L54.519 4.15739L54.5292 4.15396L54.6081 4.10938L54.615 4.10252L54.6904 4.05794L54.7007 4.05451L54.7762 4.00993L54.783 4.0065L54.8619 3.96535L54.8687 3.95849L54.9476 3.91734L54.9545 3.91048L55.0299 3.86933L55.0402 3.8659L55.1191 3.82474L55.1259 3.81789L55.2014 3.77673L55.2117 3.76988L55.2871 3.72872L55.2974 3.72186L55.3729 3.68071L55.3797 3.67385L55.4586 3.6327L55.4655 3.62927L55.5409 3.58812L55.5512 3.58469L55.6266 3.54354L55.6369 3.54011L55.7158 3.49896L55.7261 3.49553L55.805 3.45438L55.8118 3.45095L55.8907 3.41322L55.901 3.4098L55.9799 3.37207L55.9901 3.36864L56.0656 3.33092L56.0759 3.32749L56.1548 3.28977L56.1616 3.28634L56.2405 3.24862L56.2508 3.24519L56.3296 3.20746L56.3399 3.20061L56.4188 3.16288L56.4291 3.15945L56.508 3.12173L56.5183 3.1183L56.5971 3.08401L56.6074 3.08058L56.6863 3.04629L56.6932 3.03943L56.772 3.00513L56.7789 3.0017L56.8578 2.96741L56.8681 2.96055L56.9469 2.92626L56.9572 2.92283L57.0361 2.88854L57.0464 2.88511L57.1253 2.85081L57.1355 2.84738L57.2144 2.81309L57.2247 2.80966L57.3036 2.77537L57.3139 2.77194L57.3927 2.74107L57.403 2.73765L57.4819 2.70335L57.4922 2.69992L57.5745 2.66563L57.5848 2.6622L57.6671 2.62791L57.6774 2.62105L57.7563 2.59018L57.7631 2.58675L57.8454 2.55589L57.8557 2.55246L57.9346 2.5216L57.9414 2.51817L58.0237 2.4873L58.034 2.48387L58.1163 2.45644L58.1266 2.45301L58.2089 2.42215L58.2192 2.41872L58.3015 2.38785L58.3118 2.38442L58.3941 2.35699L58.4044 2.35356L58.4867 2.32612L58.497 2.3227L58.5759 2.29526L58.5862 2.29183L58.6685 2.2644L58.6787 2.26097L58.7576 2.23353L58.7679 2.2301L58.8502 2.20267L58.8571 2.19924L58.9394 2.1718L58.9497 2.16838L59.032 2.14094L59.0423 2.13751L59.1246 2.11008L59.1348 2.10665L59.2171 2.08264L59.224 2.07921L59.3063 2.05521L59.3166 2.05178L59.3989 2.02777H59.4092L59.4915 2.00377L59.5018 2.00034L59.5841 1.97633L59.5909 1.9729L59.6732 1.9489L59.6801 1.94547L59.7624 1.92146L59.7727 1.91803L59.855 1.89403L59.8653 1.8906L59.9476 1.86659L59.9579 1.86316L60.0402 1.84259L60.0505 1.83916L60.1328 1.81858L60.1396 1.81515L60.2219 1.79115L60.2302 1.78772L60.3159 1.76714H60.3228L60.4051 1.74314H60.4154L60.5001 1.72256L60.5104 1.71913L60.5961 1.69856L60.6064 1.69513L60.6887 1.67455H60.699L60.7847 1.65397H60.795L60.8773 1.6334L60.8876 1.62997L60.9699 1.61282L60.9802 1.60939L61.0625 1.58882L61.0728 1.58539L61.1551 1.56824H61.1654L61.2477 1.55109L61.2579 1.54767L61.3403 1.53052H61.3471L61.4294 1.51337L61.4397 1.50994L61.5254 1.4928H61.5323L61.618 1.47565L61.6249 1.47222L61.7106 1.45507L61.7209 1.45164L61.8066 1.4345L61.8169 1.43107L61.9027 1.41735H61.9129L61.9953 1.40363L62.0055 1.4002L62.0913 1.38306L62.1016 1.37963L62.1873 1.36591H62.1976L62.2799 1.35219L62.2902 1.34876L62.3759 1.33505L62.3862 1.33162L62.4685 1.3179H62.4754L62.5577 1.30418H62.568L62.6537 1.29046L62.664 1.28704L62.7497 1.27332H62.76L62.8457 1.2596H62.856L62.9417 1.24588H62.952L63.0378 1.2356H63.0481L63.1304 1.22531H63.1407L63.2264 1.21502L63.2367 1.21159L63.3224 1.2013L63.3293 1.19787L63.415 1.19101H63.4253L63.5076 1.18073H63.5179L63.6002 1.17044H63.6105L63.6962 1.16015H63.7065L63.7922 1.14986H63.8025L63.8848 1.143H63.8951L63.9808 1.13272L63.9911 1.12929L64.0769 1.12243L64.0872 1.119L64.1729 1.11214H64.1832L64.2675 1.10528H64.2778L64.3636 1.09842H64.3738L64.4596 1.09499L64.4699 1.09156L64.5556 1.0847L64.5625 1.08128L64.6482 1.07785H64.6585L64.7442 1.07099H64.7511L64.8368 1.06756H64.8471L64.9328 1.06413H64.9431L65.0288 1.0607H65.0391L65.1249 1.05727L65.1352 1.05384L65.2209 1.05041H65.2312L65.3169 1.04698H65.3272L65.4129 1.04355H65.4232L65.509 1.04012H65.5192L65.605 1.03669H65.6118L65.6976 1.03326H65.8039L65.8896 1.02984H66.0885L66.1067 1ZM66.0278 10.2592H65.9716L65.9153 10.2599H65.8594L65.8011 10.2613L65.7428 10.2626L65.6845 10.2644L65.6262 10.2678L65.5679 10.2712L65.5096 10.2746L65.4548 10.2781L65.3965 10.2815L65.3416 10.2849L65.2867 10.2884L65.2319 10.2918L65.1736 10.2952L65.1187 10.2986L65.0604 10.3055L65.0021 10.3124L64.9472 10.3192L64.8889 10.3261L64.8306 10.3329L64.7723 10.3398L64.7175 10.3467L64.6592 10.3535L64.6043 10.3604L64.5494 10.3672L64.4911 10.3741L64.4363 10.381L64.3814 10.3878L64.3265 10.3947L64.2716 10.4015L64.2133 10.4084L64.1585 10.4187L64.1036 10.4255L64.0453 10.4358L63.9904 10.4461L63.9356 10.4564L63.8807 10.4667L63.8258 10.477L63.771 10.4873L63.7161 10.4975L63.6612 10.5044L63.6029 10.5147L63.5481 10.525L63.4898 10.5353L63.4349 10.5456L63.38 10.5558L63.3251 10.5661L63.2703 10.5799L63.2154 10.5936L63.1605 10.6073L63.1057 10.6176L63.0508 10.6279L62.9959 10.6416L62.9411 10.6553L62.8862 10.669L62.8313 10.6827L62.7765 10.6965L62.7216 10.7102L62.6667 10.7239L62.6118 10.7376L62.557 10.7513L62.5021 10.765L62.4472 10.7822L62.3924 10.7959L62.3375 10.813L62.2861 10.8302L62.2312 10.8473L62.1763 10.8645L62.1215 10.8816L62.0666 10.8988L62.0117 10.9159L61.9603 10.9331L61.9054 10.9502L61.8505 10.9708L61.7957 10.9879L61.7408 11.0051L61.6859 11.0257L61.6311 11.0428L61.5762 11.06L61.5247 11.0771L61.4699 11.0977L61.415 11.1183L61.3601 11.1388L61.3087 11.1594L61.2538 11.18L61.2024 11.2006L61.151 11.2211L61.0961 11.2451L61.0412 11.2657L60.9863 11.2863L60.9315 11.3069L60.88 11.3309L60.8286 11.3515L60.7737 11.3755L60.7223 11.3995L60.6708 11.4235L60.6194 11.4475L60.5645 11.4715L60.5131 11.4955L60.4582 11.5195L60.4068 11.5435L60.3553 11.5675L60.3039 11.5915L60.249 11.6155L60.1976 11.6395L60.1462 11.6635L60.0947 11.691L60.0433 11.7184L59.9918 11.7424L59.9404 11.7698L59.889 11.7938L59.8375 11.8213L59.7861 11.8487L59.7346 11.8761L59.6832 11.9036L59.6318 11.931L59.5803 11.9619L59.5323 11.9893L59.4809 12.0167L59.4329 12.0442L59.3814 12.075L59.33 12.1059L59.2785 12.1368L59.2305 12.1642L59.1791 12.1951L59.1311 12.2259L59.0796 12.2568L59.0282 12.2877L58.9733 12.322L24.5428 33.5427L24.4845 33.5804L24.4296 33.6147L24.3782 33.649L24.3267 33.6833L24.2753 33.7176L24.2239 33.7519L24.1724 33.7862L24.121 33.8205L24.0695 33.8548L24.0181 33.8891L23.9667 33.9233L23.9152 33.9576L23.8638 33.9954L23.8158 34.0297L23.7677 34.064L23.7163 34.0982L23.6683 34.1325L23.6203 34.1668L23.5723 34.2011L23.5243 34.2354L23.4763 34.2697L23.4282 34.304L23.3802 34.3417L23.3322 34.376L23.2842 34.4137L23.2362 34.4515L23.1882 34.4892L23.1402 34.5269L23.0922 34.5646L23.0442 34.6024L22.9996 34.6401L22.9516 34.6778L22.9036 34.7155L22.859 34.7533L22.811 34.791L22.763 34.8287L22.7184 34.8664L22.6704 34.9041L22.6258 34.9419L22.5812 34.9796L22.5366 35.0207L22.492 35.0619L22.4475 35.0996L22.4029 35.1373L22.3583 35.1785L22.3137 35.2196L22.2691 35.2608L22.2245 35.3019L22.18 35.3431L22.1354 35.3842L22.0908 35.4254L22.0462 35.4666L22.0016 35.5077L21.9571 35.5489L21.9125 35.59L21.8713 35.6312L21.8267 35.6723L21.7856 35.7169L21.741 35.758L21.6999 35.8026L21.6587 35.8438L21.6176 35.8884L21.5764 35.9295L21.5352 35.9741L21.4941 36.0187L21.4495 36.0633L21.4084 36.1044L21.3672 36.149L21.3261 36.1936L21.2849 36.2382L21.2472 36.2827L21.206 36.3273L21.1649 36.3719L21.1237 36.4165L21.0826 36.4645L21.0414 36.5091L21.0037 36.5536L20.966 36.5982L20.9248 36.6462L20.8871 36.6908L20.846 36.7354L20.8082 36.7834L20.7705 36.828L20.7328 36.876L20.6951 36.924L20.6573 36.972L20.6196 37.02L20.5819 37.0681L20.5442 37.1161L20.5099 37.1641L20.4722 37.2121L20.4344 37.2601L20.3967 37.3081L20.359 37.3561L20.3247 37.4041L20.2904 37.4521L20.2561 37.5001L20.2218 37.5516L20.1875 37.5996L20.1532 37.6476L20.1189 37.6991L20.0846 37.7471L20.0503 37.7951L20.0161 37.8431L19.9818 37.8911L19.9509 37.9425L19.9166 37.994L19.8823 38.042L19.848 38.0934L19.8172 38.1449L19.7863 38.1929L19.7554 38.2443L19.7246 38.2958L19.6937 38.3472L19.6628 38.3986L19.6285 38.4501L19.5942 38.5015L19.5634 38.553L19.5325 38.6044L19.5017 38.6558L19.4708 38.7073L19.4399 38.7587L19.4091 38.8102L19.3782 38.8616L19.3473 38.913L19.3165 38.9645L19.2856 39.0159L19.2547 39.0708L19.2239 39.1222L19.193 39.1737L19.1621 39.2285L19.1347 39.28L19.1073 39.3348L19.0798 39.3897L19.0524 39.4446L19.025 39.496L18.9975 39.5475L18.9701 39.6023L18.9427 39.6538L18.9152 39.7086L18.8912 39.7601L18.8638 39.8149L18.8364 39.8698L18.8089 39.9247L18.7815 39.9796L18.7541 40.0344L18.7301 40.0893L18.706 40.1442L18.682 40.199L18.658 40.2539L18.634 40.3088L18.61 40.3636L18.586 40.4185L18.562 40.4734L18.538 40.5283L18.5174 40.5831L18.4934 40.638L18.4694 40.6963L18.4454 40.7512L18.4214 40.806L18.3974 40.8609L18.3768 40.9158L18.3528 40.9741L18.3288 41.0289L18.3082 41.0838L18.2877 41.1421L18.2671 41.197L18.2465 41.2553L18.2259 41.3101L18.2054 41.3684L18.1848 41.4267L18.1642 41.485L18.1471 41.5433L18.1265 41.5982L18.1059 41.6565L18.0888 41.7148L18.0716 41.7697L18.0545 41.828L18.0339 41.8863L18.0167 41.9411L17.9996 41.996L17.9825 42.0543L17.9619 42.1126L17.9447 42.1709L17.9276 42.2258L17.9104 42.2841L17.8933 42.3424L17.8761 42.4007L17.859 42.459L17.8419 42.5173L17.8281 42.5756L17.8144 42.6339L17.7973 42.6922L17.7836 42.7505L17.7664 42.8088L17.7527 42.8671L17.739 42.9254L17.7253 42.9871L17.7115 43.0454L17.6978 43.1037L17.6841 43.162L17.6704 43.2203L17.6567 43.2786L17.643 43.3369L17.6327 43.3952L17.6189 43.4535L17.6087 43.5118L17.5984 43.5735L17.5881 43.6352L17.5778 43.697L17.5675 43.7587L17.5572 43.817L17.5469 43.8753L17.5366 43.937L17.5264 43.9987L17.5161 44.057L17.5058 44.1153L17.4955 44.1736L17.4852 44.2354L17.4783 44.2971L17.4715 44.3588L17.4646 44.4171L17.4543 44.4788L17.4441 44.5371L17.4372 44.5989L17.4303 44.6606L17.4235 44.7223L17.4166 44.7841L17.4098 44.8458L17.4029 44.9075L17.396 44.9658L17.3892 45.0275L17.3823 45.0893L17.3789 45.151L17.372 45.2127L17.3652 45.2745L17.3617 45.3362L17.3583 45.3979L17.3549 45.4596L17.3515 45.5214L17.348 45.5831L17.3446 45.6448L17.3412 45.7066L17.3377 45.7683L17.3343 45.83L17.3309 45.8917V45.9535L17.3275 46.0152L17.324 46.0769V46.1386L17.3206 46.2004V89.6844L17.324 89.7461V89.9313L17.3275 89.9896L17.3309 90.0513L17.3343 90.113L17.3377 90.1748L17.3412 90.2365L17.3446 90.2982L17.348 90.3599L17.3515 90.4217L17.3549 90.4834L17.3617 90.5451L17.3652 90.6069L17.3686 90.6686L17.372 90.7303L17.3789 90.7886L17.3858 90.8503L17.3926 90.9086L17.396 90.9704L17.4029 91.0287L17.4098 91.087L17.4166 91.1453L17.4235 91.2036L17.4303 91.2653L17.4372 91.3236L17.4441 91.3819L17.4509 91.4436L17.4578 91.5053L17.4646 91.5636L17.4715 91.6254L17.4818 91.6837L17.4921 91.742L17.5023 91.8003L17.5126 91.8586L17.5229 91.9203L17.5332 91.9786L17.5435 92.0369L17.5538 92.0952L17.5641 92.1535L17.5778 92.2118L17.5881 92.2701L17.5984 92.3284L17.6087 92.3867L17.6224 92.445L17.6361 92.5033L17.6464 92.5616L17.6601 92.6199L17.6738 92.6782L17.6875 92.7365L17.7013 92.7948L17.715 92.8531L17.7287 92.9114L17.7424 92.9697L17.7561 93.0245L17.7733 93.0794L17.787 93.1377L17.8007 93.196L17.8144 93.2543L17.8316 93.3126L17.8453 93.3675L17.859 93.4258L17.8727 93.4806L17.8899 93.5389L17.9036 93.5938L17.9207 93.6521L17.9379 93.7104L17.955 93.7653L17.9722 93.8236L17.9893 93.8819L18.0065 93.9367L18.0236 93.995L18.0442 94.0499L18.0648 94.1048L18.0853 94.1596L18.1059 94.2145L18.1231 94.2694L18.1436 94.3277L18.1642 94.3826L18.1848 94.4374L18.2054 94.4923L18.2259 94.5472L18.2465 94.602L18.2671 94.6569L18.2877 94.7118L18.3082 94.7666L18.3288 94.8215L18.3528 94.8764L18.3768 94.9313L18.3974 94.9861L18.418 95.041L18.4386 95.0959L18.4591 95.1507L18.4797 95.2056L18.5037 95.2605L18.5277 95.3153L18.5517 95.3702L18.5757 95.4251L18.5997 95.4799L18.6237 95.5348L18.6477 95.5897L18.6718 95.6446L18.6958 95.6994L18.7198 95.7543L18.7438 95.8092L18.7678 95.8606L18.7952 95.9155L18.8226 95.9669L18.8501 96.0218L18.8775 96.0732L18.9049 96.1247L18.9324 96.1761L18.9598 96.2275L18.9873 96.279L19.0147 96.3304L19.0456 96.3819L19.073 96.4333L19.1004 96.4847L19.1279 96.5362L19.1587 96.5876L19.1896 96.6391L19.217 96.6905L19.2445 96.7419L19.2719 96.7934L19.3028 96.8448L19.3302 96.8963L19.361 96.9443L19.3919 96.9957L19.4228 97.0437L19.4536 97.0952L19.4845 97.1466L19.5154 97.1946L19.5462 97.2426L19.5771 97.2906L19.608 97.3386L19.6388 97.3901L19.6697 97.4415L19.704 97.4895L19.7348 97.5375L19.7657 97.589L19.7966 97.637L19.8274 97.685L19.8617 97.733L19.896 97.781L19.9303 97.8325L19.9646 97.8805L19.9989 97.9285L20.0332 97.9765L20.0675 98.0245L20.1018 98.0725L20.1361 98.1205L20.1704 98.1685L20.2081 98.2166L20.2458 98.2646L20.2801 98.3126L20.3144 98.3606L20.3487 98.4086L20.383 98.4566L20.4207 98.5012L20.4584 98.5458L20.4962 98.5938L20.5339 98.6384L20.5716 98.6864L20.6093 98.731L20.6471 98.7755L20.6848 98.8201L20.7225 98.8647L20.7602 98.9093L20.7979 98.9539L20.8357 98.9984L20.8734 99.043L20.9111 99.0876L20.9488 99.1322L20.9866 99.1768L21.0277 99.2214L21.0689 99.2659L21.1066 99.3105L21.1477 99.3517L21.1889 99.3962L21.23 99.4374L21.2712 99.482L21.3089 99.5266L21.3501 99.5711L21.3912 99.6123L21.4324 99.6534L21.4735 99.6946L21.5147 99.7357L21.5558 99.7803L21.597 99.8215L21.6381 99.8626L21.6793 99.9038L21.7204 99.9449L21.7616 99.9861L21.8062 100.027L21.8473 100.068L21.8885 100.11L21.9331 100.151L21.9742 100.192L22.0154 100.233L22.0599 100.274L22.1045 100.312L22.1491 100.35L22.1937 100.391L22.2383 100.432L22.2828 100.47L22.3274 100.507L22.372 100.549L22.4166 100.59L22.4612 100.627L22.5092 100.665L22.5572 100.703L22.6052 100.741L22.6498 100.778L22.6944 100.816L22.7424 100.854L22.787 100.891L22.835 100.926L22.8795 100.963L22.9276 101.001L22.9756 101.039L23.0236 101.077L23.0682 101.111L23.1162 101.149L23.1642 101.183L23.2122 101.221L23.2602 101.258L23.3082 101.293L23.3562 101.327L23.4077 101.361L23.4557 101.396L23.5037 101.43L23.5517 101.464L23.5997 101.498L23.6477 101.533L23.6957 101.567L23.7472 101.601L23.7986 101.632L23.8501 101.666L23.8981 101.701L23.9495 101.735L24.0009 101.769L24.049 101.8L24.1004 101.831L24.1518 101.862L24.2033 101.893L24.2547 101.924L24.3062 101.955L24.361 101.985L24.4125 102.016L24.4639 102.047L24.5222 102.081L60.4205 123.069L60.4651 123.096L60.5028 123.117L60.544 123.138L60.5851 123.158L60.6263 123.179L60.664 123.203L60.7051 123.223L60.7463 123.244L60.7874 123.264L60.8286 123.288L60.8697 123.309L60.9109 123.33L60.952 123.35L60.9932 123.371L61.0344 123.391L61.0755 123.412L61.1167 123.432L61.1578 123.453L61.1955 123.474L61.2367 123.494L61.2778 123.515L61.319 123.532L61.3601 123.552L61.4013 123.57L61.4424 123.587L61.4836 123.604L61.5247 123.625L61.5659 123.645L61.6071 123.662L61.6482 123.683L61.6894 123.7L61.7305 123.717L61.7717 123.734L61.8128 123.751L61.854 123.769L61.8951 123.786L61.9363 123.803L61.9774 123.82L62.0186 123.837L62.0597 123.851L62.1043 123.868L62.1455 123.885L62.1866 123.902L62.2278 123.919L62.2689 123.937L62.3101 123.95L62.3512 123.967L62.3924 123.981L62.4335 123.995L62.4781 124.009L62.5193 124.022L62.557 124.036L62.6461 124.063L62.7319 124.091L62.8176 124.115L62.9033 124.139L62.9891 124.163L63.0748 124.187L63.1605 124.211L63.2463 124.235L63.332 124.259L63.4177 124.28L63.5035 124.3L63.5892 124.321L63.6749 124.338L63.7607 124.358L63.8464 124.376L63.9321 124.393L64.0179 124.41L64.1036 124.424L64.1893 124.441L64.2751 124.454L64.3608 124.468L64.45 124.482L64.5357 124.496L64.6249 124.506L64.714 124.516L64.8032 124.526L64.8924 124.533L64.9781 124.54L65.0673 124.547L65.153 124.554L65.2421 124.561L65.3313 124.568L65.417 124.574L65.5028 124.578L65.5885 124.581L65.6777 124.585H66.1166L66.2058 124.581H66.295L66.3841 124.578L66.4733 124.574L66.5624 124.568L66.6516 124.561L66.7408 124.557L66.8299 124.55L66.9191 124.544L67.0083 124.537L67.094 124.53L67.1832 124.52L67.2723 124.509L67.3581 124.499L67.4472 124.489L67.5329 124.475L67.6221 124.461L67.7078 124.448L67.797 124.434L67.8827 124.42L67.9685 124.403L68.0542 124.389L68.1434 124.372L68.2291 124.355L68.3148 124.334L68.4006 124.317L68.4863 124.297L68.572 124.276L68.6578 124.256L68.7435 124.235L68.8292 124.211L68.915 124.187L69.0007 124.163L69.0864 124.139L69.1756 124.111L69.2168 124.098L69.2579 124.084L69.2991 124.07L69.3436 124.057L69.3848 124.043L69.4294 124.029L69.4705 124.015L69.5117 124.002L69.5563 123.988L69.5974 123.974L69.6386 123.961L69.6831 123.943L69.7243 123.93L69.7689 123.916L69.81 123.899L69.8512 123.885L69.8923 123.871L69.9335 123.858L69.9781 123.841L70.0192 123.827L70.0604 123.81L70.1015 123.793L70.1427 123.775L70.1838 123.758L70.225 123.741L70.2661 123.724L70.3073 123.707L70.3484 123.69L70.3896 123.673L70.4307 123.655L70.4719 123.635L70.513 123.614L70.5542 123.597L70.5953 123.576L70.6365 123.556L70.6777 123.539L70.7188 123.518L70.76 123.498L70.8011 123.477L70.8388 123.456L70.88 123.436L70.9211 123.415L70.9623 123.395L71.0034 123.374L71.0446 123.354L71.0857 123.333L71.1269 123.312L71.168 123.292L71.2058 123.271L71.2469 123.251L71.2881 123.23L71.3327 123.206L111.103 101.042L111.151 101.018L111.195 100.994L111.236 100.97L111.278 100.946L111.319 100.922L111.36 100.895L111.404 100.871L111.446 100.847L111.487 100.823L111.528 100.799L111.569 100.771L111.61 100.744L111.651 100.72L111.693 100.696L111.734 100.672L111.775 100.645L111.816 100.617L111.857 100.593L111.898 100.566L111.939 100.542L111.977 100.514L112.015 100.487L112.053 100.459L112.09 100.432L112.128 100.404L112.169 100.377L112.207 100.35L112.248 100.322L112.286 100.295L112.324 100.267L112.361 100.24L112.399 100.212L112.437 100.185L112.478 100.158L112.516 100.127L112.553 100.099L112.591 100.068L112.629 100.041L112.666 100.01L112.704 99.9792L112.742 99.9484L112.78 99.9209L112.817 99.8935L112.855 99.8626L112.889 99.8318L112.927 99.8009L112.965 99.77L112.999 99.7426L113.037 99.7117L113.075 99.6775L113.109 99.6466L113.147 99.6157L113.181 99.5849L113.215 99.554L113.249 99.5197L113.287 99.4888L113.321 99.4545L113.356 99.4237L113.39 99.3894L113.424 99.3551L113.459 99.3242L113.493 99.2899L113.527 99.2591L113.562 99.2248L113.596 99.1905L113.63 99.1562L113.664 99.1219L113.695 99.0876L113.73 99.0533L113.76 99.019L113.795 98.9847L113.829 98.9504L113.863 98.9161L113.894 98.8818L113.925 98.8475L113.956 98.8133L113.987 98.779L114.021 98.7447L114.052 98.7104L114.083 98.6761L114.114 98.6418L114.144 98.6075L114.175 98.5732L114.206 98.5389L114.237 98.5046L114.268 98.4669L114.299 98.4292L114.33 98.3914L114.361 98.3572L114.391 98.3229L114.422 98.2886L114.453 98.2508L114.484 98.2166L114.515 98.1788L114.542 98.1445L114.57 98.1068L114.597 98.0691L114.625 98.0348L114.655 97.9971L114.683 97.9594L114.71 97.9216L114.738 97.8839L114.765 97.8462L114.793 97.8085L114.82 97.7707L114.848 97.733L114.875 97.6953L114.902 97.6576L114.93 97.6199L114.957 97.5821L114.985 97.5444L115.009 97.5067L115.033 97.4655L115.06 97.4244L115.088 97.3867L115.112 97.3489L115.136 97.3112L115.163 97.2701L115.19 97.2323L115.214 97.1946L115.238 97.1535L115.262 97.1123L115.286 97.0712L115.31 97.03L115.334 96.9923L115.358 96.9511L115.382 96.91L115.406 96.8723L115.43 96.8311L115.454 96.7899L115.479 96.7488L115.499 96.7076L115.52 96.6665L115.544 96.6253L115.568 96.5842L115.588 96.543L115.612 96.5019L115.636 96.4607L115.657 96.4196L115.677 96.3784L115.698 96.3338L115.719 96.2927L115.743 96.2515L115.767 96.2104L115.787 96.1692L115.808 96.1281L115.828 96.0869L115.849 96.0424L115.869 96.0012L115.89 95.9601L115.911 95.9155L115.931 95.8743L115.952 95.8332L115.972 95.7886L115.993 95.744L116.013 95.6994L116.034 95.6583L116.051 95.6171L116.068 95.5725L116.086 95.528L116.103 95.4834L116.12 95.4422L116.137 95.3976L116.154 95.3531L116.171 95.3085L116.188 95.2673L116.206 95.2227L116.223 95.1782L116.24 95.1336L116.257 95.089L116.274 95.0444L116.288 94.9998L116.302 94.9553L116.315 94.9107L116.329 94.8661L116.346 94.8215L116.363 94.7769L116.38 94.7323L116.398 94.6878L116.411 94.6432L116.428 94.5986L116.442 94.554L116.456 94.5094L116.473 94.4649L116.487 94.4203L116.5 94.3757L116.514 94.3311L116.528 94.2865L116.538 94.242L116.552 94.1974L116.566 94.1528L116.579 94.1082L116.593 94.0636L116.603 94.019L116.614 93.971L116.627 93.9265L116.638 93.8819L116.648 93.8339L116.662 93.7893L116.672 93.7447L116.682 93.7001L116.692 93.6555L116.703 93.6075L116.713 93.5629L116.723 93.5184L116.73 93.4704L116.741 93.4223L116.751 93.3778L116.758 93.3298L116.768 93.2852L116.778 93.2372L116.789 93.1891L116.799 93.1446L116.809 93.0965L116.816 93.0485L116.826 93.0005L116.833 92.9559L116.843 92.9114L116.85 92.8634L116.857 92.8153L116.864 92.7673L116.871 92.7193L116.878 92.6713L116.885 92.6233L116.891 92.5753L116.895 92.5273L116.902 92.4827L116.905 92.4347L116.912 92.3867L116.919 92.3421L116.926 92.2941L116.929 92.2461L116.933 92.1981L116.936 92.1501L116.939 92.102L116.946 92.054L116.95 92.006L116.953 91.958L116.957 91.91L116.96 91.862L116.963 91.814L116.967 91.766L116.97 91.718L116.974 91.67L116.977 91.6219L116.981 91.5739L116.984 91.5259V91.4299L116.987 91.3819V43.9092L116.984 43.8671L116.981 43.8225V43.7779L116.977 43.7333V43.6887L116.974 43.6441V43.5996L116.97 43.555L116.967 43.5138L116.963 43.4692L116.96 43.4247L116.957 43.3801L116.953 43.3389L116.95 43.2944L116.946 43.2532L116.943 43.2086L116.936 43.164L116.933 43.1229L116.929 43.0817L116.922 43.0406L116.919 42.9994L116.912 42.9548L116.909 42.9137L116.902 42.8725L116.895 42.828L116.891 42.7834L116.888 42.7422L116.881 42.7045L116.867 42.6143L116.857 42.5269L116.843 42.4377L116.83 42.352L116.813 42.2662L116.795 42.1805L116.782 42.0948L116.765 42.009L116.744 41.9233L116.723 41.8376L116.703 41.7518L116.682 41.6661L116.662 41.5804L116.641 41.4946L116.62 41.4089L116.596 41.3232L116.572 41.2374L116.548 41.1517L116.521 41.066L116.497 40.9837L116.47 40.9014L116.442 40.8191L116.415 40.7368L116.387 40.6545L116.356 40.5721L116.326 40.4898L116.295 40.411L116.264 40.3287L116.233 40.2464L116.202 40.1641L116.168 40.0852L116.137 40.0029L116.103 39.924L116.068 39.8451L116.034 39.7663L115.996 39.6874L115.962 39.6085L115.924 39.5296L115.887 39.4508L115.849 39.3753L115.808 39.2964L115.77 39.2176L115.729 39.1387L115.688 39.0632L115.647 38.9878L115.605 38.9123L115.564 38.8369L115.523 38.7615L115.479 38.686L115.434 38.6106L115.389 38.5351L115.341 38.4597L115.297 38.3877L115.252 38.3156L115.204 38.2436L115.156 38.1716L115.108 38.0996L115.06 38.0276L115.012 37.9556L114.964 37.8835L114.913 37.815L114.861 37.7464L114.81 37.6778L114.758 37.6092L114.707 37.5406L114.652 37.472L114.597 37.4034L114.542 37.3349L114.487 37.2663L114.433 37.2011L114.374 37.136L114.319 37.0708L114.261 37.0056L114.203 36.9405L114.144 36.8753L114.086 36.8102L114.028 36.745L113.966 36.6833L113.904 36.6216L113.843 36.5598L113.781 36.4981L113.719 36.4364L113.654 36.3746L113.589 36.3129L113.524 36.2546L113.459 36.1963L113.393 36.138L113.328 36.0797L113.263 36.0214L113.195 35.9631L113.126 35.9082L113.057 35.8534L112.992 35.7985L112.92 35.7402L112.889 35.7162L112.855 35.6888L112.821 35.6613L112.786 35.6339L112.752 35.6065L112.718 35.5825L112.684 35.555L112.649 35.5276L112.612 35.5002L112.574 35.4727L112.54 35.4453L112.505 35.4179L112.471 35.3904L112.437 35.3664L112.402 35.339L112.365 35.3115L112.33 35.2875L112.296 35.2635L112.258 35.2361L112.221 35.2121L112.183 35.1881L112.149 35.1641L112.111 35.1401L112.073 35.1161L112.035 35.0921L111.998 35.0681L111.96 35.0441L111.922 35.0201L111.885 34.996L111.847 34.972L111.809 34.948L111.771 34.9275L111.734 34.9069L111.689 34.8829L72.8831 12.1159L72.8282 12.0822L72.7785 12.0548L72.727 12.0239L72.6756 11.9931L72.6252 11.9646L72.5737 11.9372L72.524 11.9097L72.4726 11.8823L72.4211 11.8549L72.3697 11.8274L72.3193 11.8L72.2678 11.7726L72.2164 11.7451L72.165 11.7177L72.1135 11.6903L72.0621 11.6628L72.0106 11.6354L71.9582 11.6114L71.9067 11.584L71.8553 11.56L71.8038 11.536L71.7524 11.5085L71.6992 11.4845L71.6478 11.4605L71.5964 11.4365L71.5429 11.4125L71.4914 11.3885L71.44 11.3679L71.3868 11.3439L71.3347 11.3199L71.2833 11.2959L71.2301 11.2753L71.1787 11.2547L71.1238 11.2342L71.071 11.2102L71.0168 11.1896L70.9619 11.1656L70.9071 11.145L70.8539 11.1244L70.8008 11.1039L70.7469 11.0833L70.6921 11.0627L70.6372 11.0421L70.5857 11.0216L70.5343 11.0044L70.4829 10.9873L70.428 10.9667L70.3731 10.9495L70.3217 10.9324L70.2668 10.9152L70.2119 10.8981L70.1605 10.8809L70.1056 10.8638L70.0508 10.8467L69.9959 10.8295L69.9445 10.8124L69.8896 10.7952L69.8347 10.7781L69.7799 10.7609L69.725 10.7472L69.6701 10.7301L69.6152 10.7163L69.5604 10.6992L69.5055 10.6855L69.4506 10.6718L69.3958 10.658L69.3409 10.6409L69.286 10.6272L69.2312 10.6135L69.1763 10.6032L69.1214 10.5895L69.0665 10.5757L69.0117 10.562L68.9568 10.5517L68.9019 10.538L68.8471 10.5277L68.7922 10.5174L68.7373 10.5037L68.6825 10.4934L68.6276 10.4831L68.5727 10.4729L68.5179 10.4626L68.463 10.4523L68.4081 10.442L68.3498 10.4317L68.2949 10.4248L68.2401 10.418L68.1852 10.4111L68.1303 10.4043L68.0755 10.394L68.0206 10.3837L67.9657 10.3768L67.9074 10.3665L67.8526 10.3597L67.7977 10.3494L67.7428 10.3425L67.688 10.3357L67.6331 10.3288L67.5782 10.322L67.5233 10.3151L67.465 10.3082L67.4102 10.3048L67.3553 10.298L67.3004 10.2911L67.2456 10.2877L67.1907 10.2842L67.1358 10.2808L67.081 10.2774L67.0261 10.274L66.9678 10.2705L66.9095 10.2671L66.8546 10.2637L66.7998 10.2602H66.7449L66.69 10.2568L66.6351 10.2534H66.5768L66.522 10.25L66.4671 10.2465L66.4157 10.2431L66.3608 10.2397H66.2476L66.1928 10.2362H66.083L66.0278 10.2592Z"
    fill="#C9177E"
  />
  <path
    d="M39.9305 102.591V31.5278H54.7981V57.4125H79.4605V31.5278H94.3713V102.591H79.4605V71.5187H54.7981V102.591H39.9305Z"
    fill="white"
  />
</svg>
