<svg
  width="24"
  height="24"
  viewBox="0 0 24 24"
  fill="none"
  xmlns="http://www.w3.org/2000/svg"
>
  <path
    d="M0 1.71919C0 0.77025 0.794437 0 1.77375 0H22.2262C23.2059 0 24 0.77025 24 1.71919V22.2811C24 23.2303 23.2059 24 22.2262 24H1.77375C0.794531 24 0 23.2304 0 22.2814V1.71891V1.71919ZM7.29337 20.0848V9.27994H3.702V20.0848H7.29375H7.29337ZM5.49844 7.80497C6.75056 7.80497 7.53009 6.97528 7.53009 5.93841C7.50666 4.87791 6.75056 4.07137 5.52225 4.07137C4.29309 4.07137 3.49031 4.87791 3.49031 5.93831C3.49031 6.97519 4.26956 7.80487 5.47491 7.80487H5.49816L5.49844 7.80497ZM9.28125 20.0848H12.8723V14.0515C12.8723 13.729 12.8958 13.4057 12.9907 13.1753C13.2502 12.5299 13.8411 11.8617 14.8334 11.8617C16.1326 11.8617 16.6526 12.8525 16.6526 14.3051V20.0848H20.2436V13.8896C20.2436 10.571 18.4721 9.02662 16.1093 9.02662C14.1722 9.02662 13.3214 10.1093 12.8487 10.8468H12.8726V9.28031H9.28144C9.32831 10.2939 9.28116 20.0852 9.28116 20.0852L9.28125 20.0848Z"
    fill="currentColor"
  />
</svg>
